<svg width="16" height="16" viewBox="0 0 16 16" fill="none" xmlns="http://www.w3.org/2000/svg">
<path d="M2.36745 8.00007L7.26745 12.9001C7.43411 13.0667 7.51467 13.2612 7.50911 13.4834C7.50356 13.7056 7.41745 13.9001 7.25078 14.0667C7.08412 14.2334 6.88967 14.3167 6.66745 14.3167C6.44523 14.3167 6.25078 14.2334 6.08412 14.0667L0.950781 8.95007C0.817448 8.81674 0.717448 8.66674 0.650781 8.50007C0.584115 8.33341 0.550781 8.16674 0.550781 8.00007C0.550781 7.83341 0.584115 7.66674 0.650781 7.50007C0.717448 7.33341 0.817448 7.18341 0.950781 7.05007L6.08412 1.91674C6.25078 1.75007 6.448 1.66952 6.67578 1.67507C6.90356 1.68063 7.10078 1.76674 7.26745 1.93341C7.43411 2.10007 7.51745 2.29452 7.51745 2.51674C7.51745 2.73896 7.43411 2.93341 7.26745 3.10007L2.36745 8.00007Z" fill="#666666"/>
</svg>
