<svg width="8" height="14" viewBox="0 0 8 14" fill="none" xmlns="http://www.w3.org/2000/svg">
<path d="M5.63255 7.00007L0.732552 11.9001C0.565885 12.0667 0.48533 12.2612 0.490885 12.4834C0.49644 12.7056 0.582552 12.9001 0.749218 13.0667C0.915885 13.2334 1.11033 13.3167 1.33255 13.3167C1.55477 13.3167 1.74922 13.2334 1.91588 13.0667L7.04922 7.95007C7.18255 7.81674 7.28255 7.66674 7.34922 7.50007C7.41589 7.33341 7.44922 7.16674 7.44922 7.00007C7.44922 6.83341 7.41589 6.66674 7.34922 6.50007C7.28255 6.33341 7.18255 6.18341 7.04922 6.05007L1.91588 0.91674C1.74922 0.750074 1.552 0.669518 1.32422 0.675074C1.09644 0.680629 0.899219 0.76674 0.732552 0.933407C0.565885 1.10007 0.482552 1.29452 0.482552 1.51674C0.482552 1.73896 0.565885 1.93341 0.732552 2.10007L5.63255 7.00007Z" fill="#333333"/>
</svg>
