<svg width="28" height="28" viewBox="0 0 28 28" fill="none" xmlns="http://www.w3.org/2000/svg">
<mask id="path-1-inside-1_698_1553" fill="white">
<path d="M0 14C0 6.26801 6.26801 0 14 0C21.732 0 28 6.26801 28 14C28 21.732 21.732 28 14 28C6.26801 28 0 21.732 0 14Z"/>
</mask>
<path d="M0 14C0 6.26801 6.26801 0 14 0C21.732 0 28 6.26801 28 14C28 21.732 21.732 28 14 28C6.26801 28 0 21.732 0 14Z" fill="#EFF4F9"/>
<path d="M14 28V26.1333C7.29895 26.1333 1.86667 20.7011 1.86667 14H0H-1.86667C-1.86667 22.7629 5.23708 29.8667 14 29.8667V28ZM28 14H26.1333C26.1333 20.7011 20.7011 26.1333 14 26.1333V28V29.8667C22.7629 29.8667 29.8667 22.7629 29.8667 14H28ZM14 0V1.86667C20.7011 1.86667 26.1333 7.29895 26.1333 14H28H29.8667C29.8667 5.23708 22.7629 -1.86667 14 -1.86667V0ZM14 0V-1.86667C5.23708 -1.86667 -1.86667 5.23708 -1.86667 14H0H1.86667C1.86667 7.29895 7.29895 1.86667 14 1.86667V0Z" fill="white" mask="url(#path-1-inside-1_698_1553)"/>
<g clip-path="url(#clip0_698_1553)">
<g clip-path="url(#clip1_698_1553)">
<g clip-path="url(#clip2_698_1553)">
<path d="M13.8369 22.0657C18.2082 22.0657 21.7519 18.5221 21.7519 14.1508C21.7519 9.77949 18.2082 6.23584 13.8369 6.23584C9.46554 6.23584 5.92188 9.77949 5.92188 14.1508C5.92188 18.5221 9.46554 22.0657 13.8369 22.0657Z" fill="#2B2C47"/>
<path d="M18.3148 16.4338L16.8681 18.0003C16.8369 18.0344 16.799 18.0615 16.7569 18.0801C16.7148 18.0987 16.6693 18.1083 16.6233 18.1083H9.76573C9.73303 18.1083 9.70103 18.0987 9.67368 18.0806C9.64632 18.0625 9.62478 18.0367 9.6117 18.0064C9.59861 17.9762 9.59455 17.9427 9.60002 17.9101C9.60549 17.8776 9.62023 17.8473 9.64246 17.823L11.0875 16.2566C11.1187 16.2225 11.1566 16.1954 11.1988 16.1768C11.2409 16.1582 11.2864 16.1486 11.3323 16.1485H18.1899C18.2229 16.1479 18.2554 16.157 18.2832 16.1749C18.311 16.1928 18.3331 16.2187 18.3464 16.2492C18.3597 16.2797 18.3639 16.3135 18.3582 16.3464C18.3526 16.3792 18.3375 16.4096 18.3148 16.4338ZM16.8681 13.2786C16.8367 13.2447 16.7989 13.2177 16.7568 13.1991C16.7146 13.1805 16.6692 13.1708 16.6233 13.1706H9.76573C9.73303 13.1706 9.70103 13.1802 9.67368 13.1983C9.64632 13.2164 9.62478 13.2422 9.6117 13.2725C9.59861 13.3027 9.59455 13.3362 9.60002 13.3688C9.60549 13.4013 9.62023 13.4316 9.64246 13.4559L11.0875 15.0232C11.1188 15.057 11.1568 15.084 11.1989 15.1027C11.241 15.1212 11.2864 15.1309 11.3323 15.1311H18.1899C18.2225 15.131 18.2544 15.1212 18.2816 15.103C18.3089 15.0849 18.3303 15.0591 18.3433 15.0289C18.3562 14.9986 18.3602 14.9652 18.3547 14.9327C18.3492 14.9002 18.3345 14.87 18.3124 14.8459L16.8681 13.2786ZM9.76573 12.1532H16.6233C16.6693 12.1531 16.7148 12.1435 16.7569 12.1249C16.799 12.1064 16.8369 12.0792 16.8681 12.0452L18.3148 10.4787C18.3375 10.4545 18.3526 10.424 18.3582 10.3912C18.3639 10.3583 18.3597 10.3245 18.3464 10.294C18.3331 10.2635 18.311 10.2377 18.2832 10.2198C18.2554 10.2019 18.2229 10.1927 18.1899 10.1934H11.3323C11.2864 10.1934 11.2409 10.2031 11.1988 10.2216C11.1566 10.2402 11.1187 10.2674 11.0875 10.3014L9.64246 11.8679C9.62023 11.8921 9.60549 11.9224 9.60002 11.9549C9.59455 11.9875 9.59861 12.021 9.6117 12.0512C9.62478 12.0815 9.64632 12.1073 9.67368 12.1254C9.70103 12.1435 9.73303 12.1532 9.76573 12.1532Z" fill="url(#paint0_linear_698_1553)"/>
</g>
</g>
</g>
<defs>
<linearGradient id="paint0_linear_698_1553" x1="10.3372" y1="18.2972" x2="17.6073" y2="10.1814" gradientUnits="userSpaceOnUse">
<stop offset="0.08" stop-color="#8752F3"/>
<stop offset="0.3" stop-color="#8752F3"/>
<stop offset="0.5" stop-color="#5497D5"/>
<stop offset="0.6" stop-color="#21D6EF"/>
<stop offset="0.72" stop-color="#28E0B9"/>
<stop offset="0.97" stop-color="#19FB9B"/>
</linearGradient>
<clipPath id="clip0_698_1553">
<rect width="16.8" height="16.8" fill="white" transform="translate(5.59961 5.59998)"/>
</clipPath>
<clipPath id="clip1_698_1553">
<rect width="16.8" height="16.8" fill="white" transform="translate(5.59961 5.59998)"/>
</clipPath>
<clipPath id="clip2_698_1553">
<rect width="16.1538" height="16.8" fill="white" transform="translate(5.92188 5.59998)"/>
</clipPath>
</defs>
</svg>
