<svg width="19" height="19" viewBox="0 0 19 19" fill="none" xmlns="http://www.w3.org/2000/svg">
<g clip-path="url(#clip0_593_2605)">
<g clip-path="url(#clip1_593_2605)">
<mask id="mask0_593_2605" style="mask-type:luminance" maskUnits="userSpaceOnUse" x="0" y="0" width="18" height="18">
<path d="M17.8598 0.796143H0.808594V17.8472H17.8598V0.796143Z" fill="white"/>
</mask>
<g mask="url(#mask0_593_2605)">
<path d="M9.33816 0.796143L1.95508 5.05891V13.5844L9.33816 17.8472L16.7089 13.5844V5.05891L9.33816 0.796143ZM14.5222 12.3192L9.32584 15.3166L4.14174 12.3192V6.32423L9.33816 3.32678L14.5222 6.32423V12.3192Z" fill="#002D74"/>
<path d="M9.33849 17.8472L16.7093 13.5844V5.05891L9.33849 0.796143V3.32678L14.5226 6.32423V12.3314L9.32617 15.3289V17.8472H9.33849Z" fill="url(#paint0_linear_593_2605)"/>
<path d="M9.32584 0.796143L1.95508 5.05891V13.5844L9.32584 17.8472V15.3166L4.14174 12.3192V6.31194L9.32584 3.32678V0.796143Z" fill="url(#paint1_linear_593_2605)"/>
<path d="M12.7784 11.3116L9.33867 13.3018L5.88672 11.3116V7.33142L9.33867 5.34131L12.7784 7.33142L11.3411 8.16676L9.32642 6.99973L7.32402 8.16676V10.4885L9.33867 11.6556L11.3534 10.4885L12.7784 11.3116Z" fill="#002D74"/>
</g>
</g>
</g>
<defs>
<linearGradient id="paint0_linear_593_2605" x1="13.0259" y1="17.8476" x2="13.0259" y2="9.32184" gradientUnits="userSpaceOnUse">
<stop stop-color="#002D74"/>
<stop offset="1" stop-color="#002D74" stop-opacity="0"/>
</linearGradient>
<linearGradient id="paint1_linear_593_2605" x1="5.64333" y1="0.796143" x2="5.64333" y2="9.32184" gradientUnits="userSpaceOnUse">
<stop stop-color="#002D74"/>
<stop offset="1" stop-color="#002D74" stop-opacity="0"/>
</linearGradient>
<clipPath id="clip0_593_2605">
<rect width="17.4" height="17.4" fill="white" transform="translate(0.808594 0.800049)"/>
</clipPath>
<clipPath id="clip1_593_2605">
<rect width="17.4" height="17.4" fill="white" transform="translate(0.808594 0.800049)"/>
</clipPath>
</defs>
</svg>
