<svg width="18" height="18" viewBox="0 0 18 18" fill="none" xmlns="http://www.w3.org/2000/svg">
<g clip-path="url(#clip0_698_1600)">
<g clip-path="url(#clip1_698_1600)">
<mask id="mask0_698_1600" style="mask-type:luminance" maskUnits="userSpaceOnUse" x="0" y="0" width="18" height="18">
<path d="M17.6391 0H0V17.6391H17.6391V0Z" fill="white"/>
</mask>
<g mask="url(#mask0_698_1600)">
<path d="M9.01519 17.3719C13.7385 17.3719 17.5675 13.5429 17.5675 8.81963C17.5675 4.09633 13.7385 0.267334 9.01519 0.267334C4.29189 0.267334 0.462891 4.09633 0.462891 8.81963C0.462891 13.5429 4.29189 17.3719 9.01519 17.3719Z" fill="#5773E7"/>
<path d="M9.01404 3.11792L8.9375 3.37778V10.9177L9.01404 10.994L12.5138 8.92522L9.01404 3.11792Z" fill="#BDC8F6"/>
<path d="M9.01358 3.11816L5.51367 8.92544L9.01358 10.9942V7.3346V3.11816Z" fill="white"/>
<path d="M9.01383 11.6571L8.9707 11.7097V14.3955L9.01383 14.5214L12.5158 9.58936L9.01383 11.6571Z" fill="#BDC8F6"/>
<path d="M9.01358 14.5214V11.6571L5.51367 9.58936L9.01358 14.5214Z" fill="white"/>
<path d="M9.01172 10.9939L12.5116 8.92507L9.01172 7.33423V10.9939Z" fill="#798FEC"/>
<path d="M5.51367 8.92507L9.01358 10.9939V7.33423L5.51367 8.92507Z" fill="#BDC8F6"/>
</g>
</g>
</g>
<defs>
<clipPath id="clip0_698_1600">
<rect width="18" height="18" fill="white"/>
</clipPath>
<clipPath id="clip1_698_1600">
<rect width="18" height="18" fill="white"/>
</clipPath>
</defs>
</svg>
