<svg width="15" height="9" viewBox="0 0 15 9" fill="none" xmlns="http://www.w3.org/2000/svg">
<path d="M6.75 9C6.5375 9 6.35938 8.92813 6.21563 8.78438C6.07188 8.64062 6 8.4625 6 8.25C6 8.0375 6.07188 7.85938 6.21563 7.71563C6.35938 7.57188 6.5375 7.5 6.75 7.5H8.25C8.4625 7.5 8.64063 7.57188 8.78438 7.71563C8.92813 7.85938 9 8.0375 9 8.25C9 8.4625 8.92813 8.64062 8.78438 8.78438C8.64063 8.92813 8.4625 9 8.25 9H6.75ZM3.75 5.25C3.5375 5.25 3.35938 5.17813 3.21563 5.03438C3.07188 4.89062 3 4.7125 3 4.5C3 4.2875 3.07188 4.10938 3.21563 3.96563C3.35938 3.82188 3.5375 3.75 3.75 3.75H11.25C11.4625 3.75 11.6406 3.82188 11.7844 3.96563C11.9281 4.10938 12 4.2875 12 4.5C12 4.7125 11.9281 4.89062 11.7844 5.03438C11.6406 5.17813 11.4625 5.25 11.25 5.25H3.75ZM1.5 1.5C1.2875 1.5 1.10938 1.42813 0.965625 1.28438C0.821875 1.14062 0.75 0.9625 0.75 0.75C0.75 0.5375 0.821875 0.359375 0.965625 0.215625C1.10938 0.071875 1.2875 0 1.5 0H13.5C13.7125 0 13.8906 0.071875 14.0344 0.215625C14.1781 0.359375 14.25 0.5375 14.25 0.75C14.25 0.9625 14.1781 1.14062 14.0344 1.28438C13.8906 1.42813 13.7125 1.5 13.5 1.5H1.5Z" fill="#666666"/>
</svg>
