<svg width="37" height="28" viewBox="0 0 37 28" fill="none" xmlns="http://www.w3.org/2000/svg">
<path d="M26.6592 0.651367C29.7376 0.651609 32.2334 3.1471 32.2334 6.22559V21.7744C32.2334 24.8529 29.7376 27.3484 26.6592 27.3486H5.90678C5.70154 27.3486 5.53516 27.1823 5.53516 26.977V1.02299C5.53516 0.81775 5.70154 0.651367 5.90678 0.651367H26.6592ZM14.5889 7.25C14.3263 7.25 14.083 7.38837 13.9492 7.61426L10.3174 13.748C10.1792 13.9815 10.1793 14.2714 10.3174 14.5049L13.9492 20.6387C14.083 20.8646 14.3263 21.0029 14.5889 21.0029H21.8857C22.1483 21.0029 22.3916 20.8646 22.5254 20.6387L26.1572 14.5049C26.2952 14.2715 26.2953 13.9814 26.1572 13.748L22.5254 7.61426C22.3916 7.38835 22.1483 7.25007 21.8857 7.25H14.5889Z" fill="url(#paint0_linear_465_2440)"/>
<mask id="path-2-inside-1_465_2440" fill="white">
<path d="M26.9355 0C30.2193 9.99582e-05 32.8809 2.66247 32.8809 5.94629V22.0537C32.8809 25.3375 30.2193 27.9999 26.9355 28H5.25248C5.04724 28 4.88086 27.8336 4.88086 27.6284V0.371624C4.88086 0.166382 5.04724 0 5.25248 0H26.9355Z"/>
</mask>
<path d="M26.9355 0L26.9355 -0.0557436H26.9355V0ZM26.9355 28V28.0557H26.9355L26.9355 28ZM26.9355 0L26.9355 0.0557436C30.1885 0.0558426 32.8251 2.69325 32.8251 5.94629H32.8809H32.9366C32.9366 2.6317 30.2501 -0.0556427 26.9355 -0.0557436L26.9355 0ZM32.8809 5.94629H32.8251V22.0537H32.8809H32.9366V5.94629H32.8809ZM32.8809 22.0537H32.8251C32.8251 25.3067 30.1885 27.9442 26.9355 27.9443L26.9355 28L26.9355 28.0557C30.2501 28.0556 32.9366 25.3683 32.9366 22.0537H32.8809ZM26.9355 28V27.9443H5.25248V28V28.0557H26.9355V28ZM4.88086 27.6284H4.9366V0.371624H4.88086H4.82512V27.6284H4.88086ZM5.25248 0V0.0557436H26.9355V0V-0.0557436H5.25248V0ZM4.88086 0.371624H4.9366C4.9366 0.197168 5.07803 0.0557436 5.25248 0.0557436V0V-0.0557436C5.01645 -0.0557436 4.82512 0.135595 4.82512 0.371624H4.88086ZM5.25248 28V27.9443C5.07803 27.9443 4.9366 27.8028 4.9366 27.6284H4.88086H4.82512C4.82512 27.8644 5.01645 28.0557 5.25248 28.0557V28Z" fill="#FD6F01" mask="url(#path-2-inside-1_465_2440)"/>
<path d="M24.4404 13.8315C24.5613 14.0358 24.5614 14.2904 24.4404 14.4946L21.624 19.2495C21.5069 19.447 21.2941 19.5679 21.0645 19.5679H15.4004C15.1707 19.5679 14.9579 19.4471 14.8408 19.2495L12.0254 14.4946C11.9044 14.2903 11.9044 14.0359 12.0254 13.8315L14.8408 9.07666C14.9579 8.87894 15.1706 8.75732 15.4004 8.75732L21.0645 8.75732C21.2942 8.75732 21.5069 8.87894 21.624 9.07666L24.4404 13.8315Z" stroke="#FD6F01" stroke-width="0.185812"/>
<path d="M22.5624 13.7811C22.7032 14.0162 22.7032 14.3097 22.5624 14.5447L20.7283 17.608C20.5941 17.8322 20.352 17.9694 20.0907 17.9694H16.3751C16.1137 17.9694 15.8716 17.8322 15.7374 17.608L13.9033 14.5447C13.7626 14.3097 13.7626 14.0162 13.9033 13.7811L15.7374 10.7179C15.8716 10.4937 16.1137 10.3564 16.3751 10.3564L20.0907 10.3564C20.352 10.3564 20.5941 10.4937 20.7283 10.7179L22.5624 13.7811Z" fill="#E1760C"/>
<g style="mix-blend-mode:overlay">
<path d="M12.7197 6.99414C12.8406 7.19843 12.8407 7.45298 12.7197 7.65723L9.90332 12.4121C9.7862 12.6096 9.57341 12.7305 9.34375 12.7305L3.67969 12.7305C3.45001 12.7305 3.23723 12.6097 3.12012 12.4121L0.304688 7.65723C0.183687 7.45289 0.183687 7.19848 0.304688 6.99414L3.12012 2.23926C3.2372 2.04154 3.4499 1.91992 3.67969 1.91992L9.34375 1.91992C9.57353 1.91992 9.78624 2.04154 9.90332 2.23926L12.7197 6.99414Z" stroke="#FD6F01" stroke-width="0.185812"/>
</g>
<g style="mix-blend-mode:overlay">
<path d="M21.6221 13.8257C21.7429 14.03 21.743 14.2845 21.6221 14.4888L20.2031 16.8833C20.086 17.0808 19.8732 17.2017 19.6436 17.2017H16.7754C16.5457 17.2017 16.3329 17.0808 16.2158 16.8833L14.7979 14.4888C14.6769 14.2844 14.6769 14.03 14.7979 13.8257L16.2158 11.4312C16.3329 11.2335 16.5456 11.1118 16.7754 11.1118H19.6436C19.8733 11.1118 20.086 11.2335 20.2031 11.4312L21.6221 13.8257Z" stroke="#FD6F01" stroke-width="0.185812"/>
</g>
<g style="mix-blend-mode:overlay">
<path d="M36.1611 6.66895C36.282 6.87324 36.2821 7.12778 36.1611 7.33203L33.3447 12.0869C33.2276 12.2844 33.0148 12.4053 32.7852 12.4053L27.1211 12.4053C26.8914 12.4053 26.6786 12.2845 26.5615 12.0869L23.7461 7.33203C23.6251 7.12769 23.6251 6.87329 23.7461 6.66895L26.5615 1.91406C26.6786 1.71634 26.8913 1.59473 27.1211 1.59473L32.7852 1.59473C33.0149 1.59473 33.2276 1.71634 33.3447 1.91406L36.1611 6.66895Z" stroke="#FD6F01" stroke-width="0.185812"/>
</g>
<g style="mix-blend-mode:overlay">
<path d="M12.7197 20.6689C12.8406 20.8732 12.8407 21.1278 12.7197 21.332L9.90332 26.0869C9.7862 26.2844 9.57341 26.4053 9.34375 26.4053H3.67969C3.45001 26.4053 3.23723 26.2845 3.12012 26.0869L0.304688 21.332C0.183687 21.1277 0.183687 20.8733 0.304688 20.6689L3.12012 15.9141C3.2372 15.7163 3.4499 15.5947 3.67969 15.5947L9.34375 15.5947C9.57353 15.5947 9.78624 15.7163 9.90332 15.9141L12.7197 20.6689Z" stroke="#FD6F01" stroke-width="0.185812"/>
</g>
<defs>
<linearGradient id="paint0_linear_465_2440" x1="18.8843" y1="0.651367" x2="18.8843" y2="27.3486" gradientUnits="userSpaceOnUse">
<stop stop-color="#FD6F01"/>
<stop offset="1" stop-color="#FFB000"/>
</linearGradient>
</defs>
</svg>
