<svg width="34" height="34" viewBox="0 0 34 34" fill="none" xmlns="http://www.w3.org/2000/svg">
<circle cx="17" cy="17" r="17" fill="#FFE6D0"/>
<path d="M12.1492 22.3333C11.4826 22.3333 10.9131 22.0944 10.4409 21.6166C9.96866 21.1388 9.72144 20.5611 9.69922 19.8833C9.69922 19.7833 9.70477 19.6833 9.71589 19.5833C9.727 19.4833 9.74366 19.3833 9.76589 19.2833L11.1659 13.6833C11.3214 13.0833 11.6381 12.5972 12.1159 12.225C12.5937 11.8527 13.1381 11.6666 13.7492 11.6666H20.2492C20.8603 11.6666 21.4048 11.8527 21.8826 12.225C22.3603 12.5972 22.677 13.0833 22.8326 13.6833L24.2326 19.2833C24.2548 19.3833 24.2742 19.4861 24.2909 19.5916C24.3076 19.6972 24.3159 19.8 24.3159 19.9C24.3159 20.5777 24.0742 21.1527 23.5909 21.625C23.1076 22.0972 22.527 22.3333 21.8492 22.3333C21.3826 22.3333 20.9492 22.2111 20.5492 21.9666C20.1492 21.7222 19.8492 21.3888 19.6492 20.9666L19.1826 20C19.127 19.8888 19.0437 19.8055 18.9326 19.75C18.8214 19.6944 18.7048 19.6666 18.5826 19.6666H15.4159C15.2937 19.6666 15.177 19.6944 15.0659 19.75C14.9548 19.8055 14.8714 19.8888 14.8159 20L14.3492 20.9666C14.1492 21.3888 13.8492 21.7222 13.4492 21.9666C13.0492 22.2111 12.6159 22.3333 12.1492 22.3333ZM12.1992 21C12.4103 21 12.602 20.9444 12.7742 20.8333C12.9464 20.7222 13.077 20.5722 13.1659 20.3833L13.6326 19.4333C13.7992 19.0888 14.0437 18.8194 14.3659 18.625C14.6881 18.4305 15.0381 18.3333 15.4159 18.3333H18.5826C18.9603 18.3333 19.3103 18.4333 19.6326 18.6333C19.9548 18.8333 20.2048 19.1 20.3826 19.4333L20.8492 20.3833C20.9381 20.5722 21.0687 20.7222 21.2409 20.8333C21.4131 20.9444 21.6048 21 21.8159 21C22.127 21 22.3937 20.8972 22.6159 20.6916C22.8381 20.4861 22.9548 20.2277 22.9659 19.9166C22.9659 19.9277 22.9548 19.8222 22.9326 19.6L21.5326 14.0166C21.4548 13.7166 21.2992 13.4722 21.0659 13.2833C20.8326 13.0944 20.5603 13 20.2492 13H13.7492C13.4381 13 13.1631 13.0944 12.9242 13.2833C12.6853 13.4722 12.5326 13.7166 12.4659 14.0166L11.0659 19.6C11.0437 19.6666 11.0326 19.7666 11.0326 19.9C11.0326 20.2111 11.1464 20.4722 11.3742 20.6833C11.602 20.8944 11.877 21 12.1992 21ZM17.9992 16.3333C18.1881 16.3333 18.3464 16.2694 18.4742 16.1416C18.602 16.0138 18.6659 15.8555 18.6659 15.6666C18.6659 15.4777 18.602 15.3194 18.4742 15.1916C18.3464 15.0638 18.1881 15 17.9992 15C17.8103 15 17.652 15.0638 17.5242 15.1916C17.3964 15.3194 17.3326 15.4777 17.3326 15.6666C17.3326 15.8555 17.3964 16.0138 17.5242 16.1416C17.652 16.2694 17.8103 16.3333 17.9992 16.3333ZM19.3326 15C19.5214 15 19.6798 14.9361 19.8076 14.8083C19.9353 14.6805 19.9992 14.5222 19.9992 14.3333C19.9992 14.1444 19.9353 13.9861 19.8076 13.8583C19.6798 13.7305 19.5214 13.6666 19.3326 13.6666C19.1437 13.6666 18.9853 13.7305 18.8576 13.8583C18.7298 13.9861 18.6659 14.1444 18.6659 14.3333C18.6659 14.5222 18.7298 14.6805 18.8576 14.8083C18.9853 14.9361 19.1437 15 19.3326 15ZM19.3326 17.6666C19.5214 17.6666 19.6798 17.6027 19.8076 17.475C19.9353 17.3472 19.9992 17.1888 19.9992 17C19.9992 16.8111 19.9353 16.6527 19.8076 16.525C19.6798 16.3972 19.5214 16.3333 19.3326 16.3333C19.1437 16.3333 18.9853 16.3972 18.8576 16.525C18.7298 16.6527 18.6659 16.8111 18.6659 17C18.6659 17.1888 18.7298 17.3472 18.8576 17.475C18.9853 17.6027 19.1437 17.6666 19.3326 17.6666ZM20.6659 16.3333C20.8548 16.3333 21.0131 16.2694 21.1409 16.1416C21.2687 16.0138 21.3326 15.8555 21.3326 15.6666C21.3326 15.4777 21.2687 15.3194 21.1409 15.1916C21.0131 15.0638 20.8548 15 20.6659 15C20.477 15 20.3187 15.0638 20.1909 15.1916C20.0631 15.3194 19.9992 15.4777 19.9992 15.6666C19.9992 15.8555 20.0631 16.0138 20.1909 16.1416C20.3187 16.2694 20.477 16.3333 20.6659 16.3333ZM14.6659 17.3333C14.8103 17.3333 14.9298 17.2861 15.0242 17.1916C15.1187 17.0972 15.1659 16.9777 15.1659 16.8333V16.1666H15.8326C15.977 16.1666 16.0964 16.1194 16.1909 16.025C16.2853 15.9305 16.3326 15.8111 16.3326 15.6666C16.3326 15.5222 16.2853 15.4027 16.1909 15.3083C16.0964 15.2138 15.977 15.1666 15.8326 15.1666H15.1659V14.5C15.1659 14.3555 15.1187 14.2361 15.0242 14.1416C14.9298 14.0472 14.8103 14 14.6659 14C14.5214 14 14.402 14.0472 14.3076 14.1416C14.2131 14.2361 14.1659 14.3555 14.1659 14.5V15.1666H13.4992C13.3548 15.1666 13.2353 15.2138 13.1409 15.3083C13.0464 15.4027 12.9992 15.5222 12.9992 15.6666C12.9992 15.8111 13.0464 15.9305 13.1409 16.025C13.2353 16.1194 13.3548 16.1666 13.4992 16.1666H14.1659V16.8333C14.1659 16.9777 14.2131 17.0972 14.3076 17.1916C14.402 17.2861 14.5214 17.3333 14.6659 17.3333Z" fill="#F07100"/>
</svg>
