<svg width="34" height="34" viewBox="0 0 34 34" fill="none" xmlns="http://www.w3.org/2000/svg">
<circle cx="17" cy="17" r="17" fill="#FFE6D0"/>
<path d="M13.4332 16.2666C13.6093 15.9145 13.7916 15.575 13.9803 15.248C14.1689 14.9211 14.3764 14.5941 14.6027 14.2672L13.5464 14.0597L11.962 15.6441L13.4332 16.2666ZM22.5249 11.0794C21.6447 11.1046 20.7047 11.3624 19.705 11.8528C18.7053 12.3432 17.7967 12.9971 16.9794 13.8145C16.4512 14.3426 15.9797 14.9085 15.5647 15.5121C15.1497 16.1157 14.8416 16.6816 14.6404 17.2097L16.7907 19.3411C17.3189 19.1399 17.8848 18.8319 18.4884 18.4169C19.0919 18.0019 19.6578 17.5304 20.186 17.0022C21.0033 16.1848 21.6572 15.2795 22.1477 14.286C22.6381 13.2926 22.8959 12.3558 22.921 11.4755C22.921 11.4252 22.9116 11.3749 22.8927 11.3246C22.8739 11.2743 22.8456 11.2303 22.8078 11.1926C22.7701 11.1549 22.7261 11.1266 22.6758 11.1077C22.6255 11.0889 22.5752 11.0794 22.5249 11.0794ZM18.3752 15.6064C18.086 15.3172 17.9413 14.9619 17.9413 14.5407C17.9413 14.1194 18.086 13.7642 18.3752 13.475C18.6644 13.1857 19.0228 13.0411 19.4503 13.0411C19.8779 13.0411 20.2363 13.1857 20.5255 13.475C20.8147 13.7642 20.9593 14.1194 20.9593 14.5407C20.9593 14.9619 20.8147 15.3172 20.5255 15.6064C20.2363 15.8956 19.8779 16.0402 19.4503 16.0402C19.0228 16.0402 18.6644 15.8956 18.3752 15.6064ZM17.7339 20.5483L18.3563 22.0385L19.9408 20.454L19.7333 19.3977C19.4063 19.6241 19.0794 19.8284 18.7524 20.0108C18.4255 20.1931 18.086 20.3723 17.7339 20.5483ZM24.3545 10.4758C24.4551 11.8591 24.2288 13.2077 23.6755 14.5218C23.1222 15.8359 22.2483 17.0902 21.0536 18.2849L21.4309 20.1522C21.4812 20.4037 21.4686 20.6489 21.3932 20.8879C21.3177 21.1268 21.192 21.3343 21.0159 21.5103L18.6393 23.887C18.4506 24.0756 18.2243 24.1479 17.9602 24.1039C17.6961 24.0599 17.5138 23.9121 17.4132 23.6606L16.2626 20.9633L13.0371 17.7378L10.3398 16.5872C10.0883 16.4866 9.93742 16.3043 9.88712 16.0402C9.83682 15.7762 9.90598 15.5498 10.0946 15.3612L12.4713 12.9845C12.6473 12.8085 12.8579 12.6827 13.1032 12.6073C13.3484 12.5318 13.5967 12.5193 13.8482 12.5696L15.7156 12.9468C16.9102 11.7522 18.1646 10.8782 19.4786 10.3249C20.7927 9.77164 22.1414 9.5453 23.5246 9.6459C23.6252 9.65847 23.7258 9.68676 23.8264 9.73078C23.927 9.77479 24.015 9.83452 24.0905 9.90997C24.1659 9.98542 24.2257 10.0734 24.2697 10.174C24.3137 10.2746 24.342 10.3752 24.3545 10.4758ZM11.0377 19.7561C11.4778 19.316 12.0154 19.0928 12.6505 19.0865C13.2855 19.0802 13.8231 19.2971 14.2632 19.7373C14.7033 20.1774 14.9202 20.715 14.9139 21.35C14.9077 21.985 14.6844 22.5226 14.2443 22.9627C13.6407 23.5663 12.9271 23.9247 12.1034 24.0379C11.2798 24.151 10.453 24.2642 9.62305 24.3774C9.73622 23.5475 9.8494 22.7207 9.96257 21.897C10.0757 21.0733 10.4341 20.3597 11.0377 19.7561ZM12.1129 20.8124C11.8991 21.0262 11.7513 21.284 11.6696 21.5858C11.5879 21.8876 11.5219 22.1957 11.4716 22.51C11.7859 22.4597 12.094 22.3968 12.3958 22.3214C12.6976 22.246 12.9554 22.1013 13.1692 21.8876C13.3201 21.7367 13.4018 21.5543 13.4144 21.3406C13.427 21.1268 13.3578 20.9444 13.2069 20.7935C13.056 20.6426 12.8737 20.5703 12.6599 20.5766C12.4461 20.5829 12.2638 20.6615 12.1129 20.8124Z" fill="#F07100"/>
</svg>
