<svg width="200" height="148" viewBox="0 0 200 148" fill="none" xmlns="http://www.w3.org/2000/svg">
<g filter="url(#filter0_d_459_1286)">
<g clip-path="url(#clip0_459_1286)">
<path d="M27 38.229C27 32.0274 32.0274 27 38.229 27H161.748C167.95 27 172.977 32.0274 172.977 38.229V180H27V38.229Z" fill="white"/>
<g clip-path="url(#clip1_459_1286)">
<path d="M144.531 65.9271C144.424 65.9271 144.336 65.8912 144.264 65.8195C144.192 65.7477 144.156 65.6588 144.156 65.5528C144.156 65.4467 144.192 65.3578 144.264 65.2861C144.336 65.2143 144.424 65.1785 144.531 65.1785H144.905V62.5584C144.905 62.0406 145.061 61.5805 145.373 61.1781C145.685 60.7758 146.09 60.5122 146.589 60.3874V60.1254C146.589 59.9695 146.644 59.8369 146.753 59.7277C146.862 59.6186 146.995 59.564 147.151 59.564C147.307 59.564 147.439 59.6186 147.548 59.7277C147.658 59.8369 147.712 59.9695 147.712 60.1254V60.3874C148.211 60.5122 148.617 60.7758 148.929 61.1781C149.24 61.5805 149.396 62.0406 149.396 62.5584V65.1785H149.771C149.877 65.1785 149.966 65.2143 150.037 65.2861C150.109 65.3578 150.145 65.4467 150.145 65.5528C150.145 65.6588 150.109 65.7477 150.037 65.8195C149.966 65.8912 149.877 65.9271 149.771 65.9271H144.531ZM147.151 67.05C146.945 67.05 146.769 66.9767 146.622 66.8301C146.475 66.6835 146.402 66.5072 146.402 66.3014H147.899C147.899 66.5072 147.826 66.6835 147.679 66.8301C147.533 66.9767 147.357 67.05 147.151 67.05ZM145.653 65.1785H148.648V62.5584C148.648 62.1466 148.501 61.7942 148.208 61.501C147.915 61.2078 147.562 61.0612 147.151 61.0612C146.739 61.0612 146.386 61.2078 146.093 61.501C145.8 61.7942 145.653 62.1466 145.653 62.5584V65.1785Z" fill="#333333"/>
</g>
<rect x="32.9883" y="104.854" width="133.251" height="52.402" rx="2.9944" fill="#F07100"/>
<path d="M40.2653 114.202C40.5008 114.246 40.6945 114.364 40.8462 114.556C40.9979 114.747 41.0738 114.967 41.0738 115.214C41.0738 115.438 41.0179 115.636 40.9061 115.807C40.7983 115.975 40.6406 116.107 40.4329 116.202C40.2253 116.298 39.9798 116.346 39.6963 116.346H37.8937V112.166H39.6185C39.9019 112.166 40.1455 112.212 40.3491 112.304C40.5567 112.396 40.7124 112.523 40.8162 112.687C40.924 112.851 40.9779 113.036 40.9779 113.244C40.9779 113.488 40.9121 113.691 40.7803 113.855C40.6525 114.019 40.4809 114.134 40.2653 114.202ZM38.7321 113.891H39.4987C39.6983 113.891 39.852 113.847 39.9598 113.759C40.0676 113.667 40.1215 113.537 40.1215 113.37C40.1215 113.202 40.0676 113.072 39.9598 112.98C39.852 112.889 39.6983 112.843 39.4987 112.843H38.7321V113.891ZM39.5765 115.663C39.7802 115.663 39.9379 115.616 40.0497 115.52C40.1654 115.424 40.2233 115.288 40.2233 115.112C40.2233 114.933 40.1635 114.793 40.0437 114.693C39.9239 114.589 39.7622 114.538 39.5586 114.538H38.7321V115.663H39.5765ZM44.8262 114.615C44.8262 114.735 44.8182 114.843 44.8022 114.939H42.3768C42.3967 115.178 42.4806 115.366 42.6283 115.502C42.776 115.638 42.9577 115.705 43.1733 115.705C43.4847 115.705 43.7063 115.572 43.838 115.304H44.7424C44.6465 115.624 44.4629 115.887 44.1914 116.095C43.9199 116.298 43.5865 116.4 43.1913 116.4C42.8719 116.4 42.5844 116.33 42.3289 116.19C42.0773 116.047 41.8797 115.845 41.736 115.586C41.5962 115.326 41.5264 115.027 41.5264 114.687C41.5264 114.344 41.5962 114.042 41.736 113.783C41.8757 113.523 42.0714 113.324 42.3229 113.184C42.5744 113.044 42.8639 112.974 43.1913 112.974C43.5067 112.974 43.7881 113.042 44.0357 113.178C44.2872 113.314 44.4808 113.507 44.6166 113.759C44.7563 114.007 44.8262 114.292 44.8262 114.615ZM43.9578 114.376C43.9538 114.16 43.876 113.989 43.7243 113.861C43.5725 113.729 43.3869 113.663 43.1673 113.663C42.9597 113.663 42.784 113.727 42.6403 113.855C42.5006 113.979 42.4147 114.152 42.3828 114.376H43.9578ZM45.2226 114.687C45.2226 114.344 45.2925 114.044 45.4322 113.789C45.5719 113.529 45.7656 113.33 46.0131 113.19C46.2606 113.046 46.5441 112.974 46.8635 112.974C47.2747 112.974 47.6141 113.078 47.8816 113.286C48.1531 113.49 48.3348 113.777 48.4266 114.148H47.5223C47.4744 114.005 47.3925 113.893 47.2767 113.813C47.165 113.729 47.0252 113.687 46.8575 113.687C46.618 113.687 46.4283 113.775 46.2886 113.951C46.1489 114.122 46.079 114.368 46.079 114.687C46.079 115.003 46.1489 115.248 46.2886 115.424C46.4283 115.596 46.618 115.681 46.8575 115.681C47.1969 115.681 47.4185 115.53 47.5223 115.226H48.4266C48.3348 115.586 48.1531 115.871 47.8816 116.083C47.6101 116.294 47.2708 116.4 46.8635 116.4C46.5441 116.4 46.2606 116.33 46.0131 116.19C45.7656 116.047 45.5719 115.847 45.4322 115.592C45.2925 115.332 45.2226 115.031 45.2226 114.687ZM50.5141 116.4C50.1947 116.4 49.9072 116.33 49.6517 116.19C49.3962 116.047 49.1945 115.845 49.0468 115.586C48.9031 115.326 48.8312 115.027 48.8312 114.687C48.8312 114.348 48.9051 114.048 49.0528 113.789C49.2045 113.529 49.4101 113.33 49.6696 113.19C49.9292 113.046 50.2186 112.974 50.538 112.974C50.8574 112.974 51.1469 113.046 51.4064 113.19C51.6659 113.33 51.8695 113.529 52.0173 113.789C52.169 114.048 52.2448 114.348 52.2448 114.687C52.2448 115.027 52.167 115.326 52.0113 115.586C51.8596 115.845 51.6519 116.047 51.3884 116.19C51.1289 116.33 50.8375 116.4 50.5141 116.4ZM50.5141 115.669C50.6658 115.669 50.8075 115.634 50.9393 115.562C51.075 115.486 51.1828 115.374 51.2627 115.226C51.3425 115.079 51.3824 114.899 51.3824 114.687C51.3824 114.372 51.2986 114.13 51.1309 113.963C50.9672 113.791 50.7656 113.705 50.526 113.705C50.2865 113.705 50.0849 113.791 49.9212 113.963C49.7615 114.13 49.6816 114.372 49.6816 114.687C49.6816 115.003 49.7595 115.246 49.9152 115.418C50.0749 115.586 50.2745 115.669 50.5141 115.669ZM56.9801 112.98C57.3874 112.98 57.7148 113.106 57.9623 113.358C58.2138 113.605 58.3396 113.953 58.3396 114.4V116.346H57.5012V114.514C57.5012 114.254 57.4353 114.056 57.3035 113.921C57.1718 113.781 56.9921 113.711 56.7646 113.711C56.537 113.711 56.3553 113.781 56.2196 113.921C56.0878 114.056 56.0219 114.254 56.0219 114.514V116.346H55.1835V114.514C55.1835 114.254 55.1176 114.056 54.9859 113.921C54.8541 113.781 54.6745 113.711 54.4469 113.711C54.2153 113.711 54.0317 113.781 53.8959 113.921C53.7642 114.056 53.6983 114.254 53.6983 114.514V116.346H52.8599V113.028H53.6983V113.43C53.8061 113.29 53.9438 113.18 54.1115 113.1C54.2832 113.02 54.4708 112.98 54.6745 112.98C54.934 112.98 55.1655 113.036 55.3692 113.148C55.5728 113.256 55.7305 113.412 55.8423 113.615C55.9501 113.424 56.1058 113.27 56.3094 113.154C56.517 113.038 56.7406 112.98 56.9801 112.98ZM62.2195 114.615C62.2195 114.735 62.2115 114.843 62.1955 114.939H59.77C59.79 115.178 59.8738 115.366 60.0216 115.502C60.1693 115.638 60.351 115.705 60.5666 115.705C60.878 115.705 61.0996 115.572 61.2313 115.304H62.1356C62.0398 115.624 61.8561 115.887 61.5846 116.095C61.3132 116.298 60.9798 116.4 60.5845 116.4C60.2651 116.4 59.9777 116.33 59.7221 116.19C59.4706 116.047 59.273 115.845 59.1292 115.586C58.9895 115.326 58.9196 115.027 58.9196 114.687C58.9196 114.344 58.9895 114.042 59.1292 113.783C59.269 113.523 59.4646 113.324 59.7161 113.184C59.9677 113.044 60.2571 112.974 60.5845 112.974C60.8999 112.974 61.1814 113.042 61.4289 113.178C61.6805 113.314 61.8741 113.507 62.0099 113.759C62.1496 114.007 62.2195 114.292 62.2195 114.615ZM61.3511 114.376C61.3471 114.16 61.2692 113.989 61.1175 113.861C60.9658 113.729 60.7802 113.663 60.5606 113.663C60.353 113.663 60.1773 113.727 60.0335 113.855C59.8938 113.979 59.808 114.152 59.776 114.376H61.3511ZM64.0429 114.675C64.0429 114.34 64.1087 114.042 64.2405 113.783C64.3762 113.523 64.5579 113.324 64.7855 113.184C65.017 113.044 65.2746 112.974 65.558 112.974C65.8056 112.974 66.0212 113.024 66.2048 113.124C66.3925 113.224 66.5422 113.35 66.654 113.502V113.028H67.4984V116.346H66.654V115.861C66.5462 116.017 66.3965 116.147 66.2048 116.25C66.0172 116.35 65.7996 116.4 65.552 116.4C65.2726 116.4 65.017 116.328 64.7855 116.184C64.5579 116.041 64.3762 115.839 64.2405 115.58C64.1087 115.316 64.0429 115.015 64.0429 114.675ZM66.654 114.687C66.654 114.484 66.6141 114.31 66.5342 114.166C66.4544 114.019 66.3466 113.907 66.2108 113.831C66.0751 113.751 65.9293 113.711 65.7736 113.711C65.6179 113.711 65.4742 113.749 65.3424 113.825C65.2107 113.901 65.1029 114.013 65.019 114.16C64.9392 114.304 64.8993 114.476 64.8993 114.675C64.8993 114.875 64.9392 115.051 65.019 115.202C65.1029 115.35 65.2107 115.464 65.3424 115.544C65.4782 115.624 65.6219 115.663 65.7736 115.663C65.9293 115.663 66.0751 115.626 66.2108 115.55C66.3466 115.47 66.4544 115.358 66.5342 115.214C66.6141 115.067 66.654 114.891 66.654 114.687ZM69.5407 114.25C69.5407 113.839 69.6325 113.472 69.8162 113.148C70.0038 112.821 70.2573 112.567 70.5767 112.388C70.9001 112.204 71.2615 112.112 71.6607 112.112C72.1278 112.112 72.5371 112.232 72.8884 112.471C73.2398 112.711 73.4853 113.042 73.625 113.466H72.6608C72.565 113.266 72.4293 113.116 72.2536 113.016C72.0819 112.917 71.8823 112.867 71.6547 112.867C71.4112 112.867 71.1936 112.925 71.0019 113.04C70.8143 113.152 70.6666 113.312 70.5588 113.519C70.455 113.727 70.4031 113.971 70.4031 114.25C70.4031 114.526 70.455 114.769 70.5588 114.981C70.6666 115.188 70.8143 115.35 71.0019 115.466C71.1936 115.578 71.4112 115.634 71.6547 115.634C71.8823 115.634 72.0819 115.584 72.2536 115.484C72.4293 115.38 72.565 115.228 72.6608 115.029H73.625C73.4853 115.456 73.2398 115.789 72.8884 116.029C72.5411 116.264 72.1318 116.382 71.6607 116.382C71.2615 116.382 70.9001 116.292 70.5767 116.113C70.2573 115.929 70.0038 115.675 69.8162 115.352C69.6325 115.029 69.5407 114.661 69.5407 114.25ZM75.1796 113.543C75.2874 113.368 75.4271 113.23 75.5988 113.13C75.7745 113.03 75.9741 112.98 76.1977 112.98V113.861H75.9761C75.7126 113.861 75.513 113.923 75.3772 114.046C75.2455 114.17 75.1796 114.386 75.1796 114.693V116.346H74.3412V113.028H75.1796V113.543ZM79.8467 114.615C79.8467 114.735 79.8387 114.843 79.8227 114.939H77.3972C77.4172 115.178 77.501 115.366 77.6488 115.502C77.7965 115.638 77.9782 115.705 78.1937 115.705C78.5052 115.705 78.7268 115.572 78.8585 115.304H79.7628C79.667 115.624 79.4833 115.887 79.2118 116.095C78.9404 116.298 78.607 116.4 78.2117 116.4C77.8923 116.4 77.6048 116.33 77.3493 116.19C77.0978 116.047 76.9002 115.845 76.7564 115.586C76.6167 115.326 76.5468 115.027 76.5468 114.687C76.5468 114.344 76.6167 114.042 76.7564 113.783C76.8962 113.523 77.0918 113.324 77.3433 113.184C77.5949 113.044 77.8843 112.974 78.2117 112.974C78.5271 112.974 78.8086 113.042 79.0561 113.178C79.3077 113.314 79.5013 113.507 79.637 113.759C79.7768 114.007 79.8467 114.292 79.8467 114.615ZM78.9783 114.376C78.9743 114.16 78.8964 113.989 78.7447 113.861C78.593 113.729 78.4073 113.663 78.1878 113.663C77.9801 113.663 77.8045 113.727 77.6607 113.855C77.521 113.979 77.4352 114.152 77.4032 114.376H78.9783ZM80.243 114.675C80.243 114.34 80.3089 114.042 80.4407 113.783C80.5764 113.523 80.7581 113.324 80.9857 113.184C81.2172 113.044 81.4747 112.974 81.7582 112.974C82.0057 112.974 82.2213 113.024 82.405 113.124C82.5926 113.224 82.7424 113.35 82.8542 113.502V113.028H83.6986V116.346H82.8542V115.861C82.7464 116.017 82.5966 116.147 82.405 116.25C82.2173 116.35 81.9998 116.4 81.7522 116.4C81.4727 116.4 81.2172 116.328 80.9857 116.184C80.7581 116.041 80.5764 115.839 80.4407 115.58C80.3089 115.316 80.243 115.015 80.243 114.675ZM82.8542 114.687C82.8542 114.484 82.8142 114.31 82.7344 114.166C82.6545 114.019 82.5467 113.907 82.411 113.831C82.2752 113.751 82.1295 113.711 81.9738 113.711C81.8181 113.711 81.6744 113.749 81.5426 113.825C81.4109 113.901 81.3031 114.013 81.2192 114.16C81.1394 114.304 81.0994 114.476 81.0994 114.675C81.0994 114.875 81.1394 115.051 81.2192 115.202C81.3031 115.35 81.4109 115.464 81.5426 115.544C81.6784 115.624 81.8221 115.663 81.9738 115.663C82.1295 115.663 82.2752 115.626 82.411 115.55C82.5467 115.47 82.6545 115.358 82.7344 115.214C82.8142 115.067 82.8542 114.891 82.8542 114.687ZM85.4936 113.717V115.322C85.4936 115.434 85.5196 115.516 85.5715 115.568C85.6274 115.616 85.7192 115.64 85.847 115.64H86.2362V116.346H85.7092C85.0025 116.346 84.6492 116.003 84.6492 115.316V113.717H84.2539V113.028H84.6492V112.208H85.4936V113.028H86.2362V113.717H85.4936ZM88.3125 116.4C87.9931 116.4 87.7057 116.33 87.4501 116.19C87.1946 116.047 86.993 115.845 86.8453 115.586C86.7015 115.326 86.6297 115.027 86.6297 114.687C86.6297 114.348 86.7035 114.048 86.8513 113.789C87.003 113.529 87.2086 113.33 87.4681 113.19C87.7276 113.046 88.0171 112.974 88.3365 112.974C88.6559 112.974 88.9453 113.046 89.2049 113.19C89.4644 113.33 89.668 113.529 89.8157 113.789C89.9674 114.048 90.0433 114.348 90.0433 114.687C90.0433 115.027 89.9654 115.326 89.8097 115.586C89.658 115.845 89.4504 116.047 89.1869 116.19C88.9274 116.33 88.6359 116.4 88.3125 116.4ZM88.3125 115.669C88.4642 115.669 88.606 115.634 88.7377 115.562C88.8735 115.486 88.9813 115.374 89.0611 115.226C89.141 115.079 89.1809 114.899 89.1809 114.687C89.1809 114.372 89.0971 114.13 88.9294 113.963C88.7657 113.791 88.5641 113.705 88.3245 113.705C88.085 113.705 87.8833 113.791 87.7196 113.963C87.5599 114.13 87.4801 114.372 87.4801 114.687C87.4801 115.003 87.5579 115.246 87.7137 115.418C87.8734 115.586 88.073 115.669 88.3125 115.669ZM91.4968 113.543C91.6045 113.368 91.7443 113.23 91.916 113.13C92.0916 113.03 92.2913 112.98 92.5148 112.98V113.861H92.2933C92.0298 113.861 91.8301 113.923 91.6944 114.046C91.5626 114.17 91.4968 114.386 91.4968 114.693V116.346H90.6583V113.028H91.4968V113.543ZM95.345 113.513C95.4528 113.354 95.6005 113.224 95.7882 113.124C95.9798 113.024 96.1974 112.974 96.441 112.974C96.7244 112.974 96.98 113.044 97.2075 113.184C97.4391 113.324 97.6208 113.523 97.7525 113.783C97.8883 114.039 97.9561 114.336 97.9561 114.675C97.9561 115.015 97.8883 115.316 97.7525 115.58C97.6208 115.839 97.4391 116.041 97.2075 116.184C96.98 116.328 96.7244 116.4 96.441 116.4C96.1934 116.4 95.9758 116.352 95.7882 116.256C95.6045 116.157 95.4568 116.029 95.345 115.873V116.346H94.5066V111.914H95.345V113.513ZM97.0997 114.675C97.0997 114.476 97.0578 114.304 96.974 114.16C96.8941 114.013 96.7863 113.901 96.6506 113.825C96.5188 113.749 96.3751 113.711 96.2194 113.711C96.0677 113.711 95.9239 113.751 95.7882 113.831C95.6564 113.907 95.5486 114.019 95.4648 114.166C95.3849 114.314 95.345 114.488 95.345 114.687C95.345 114.887 95.3849 115.061 95.4648 115.208C95.5486 115.356 95.6564 115.47 95.7882 115.55C95.9239 115.626 96.0677 115.663 96.2194 115.663C96.3751 115.663 96.5188 115.624 96.6506 115.544C96.7863 115.464 96.8941 115.35 96.974 115.202C97.0578 115.055 97.0997 114.879 97.0997 114.675ZM101.739 113.028L99.6853 117.915H98.793L99.5116 116.262L98.1821 113.028H99.1224L99.9788 115.346L100.847 113.028H101.739ZM104.457 111.914V116.346H103.618V111.914H104.457ZM105.07 114.675C105.07 114.34 105.136 114.042 105.267 113.783C105.403 113.523 105.585 113.324 105.812 113.184C106.044 113.044 106.301 112.974 106.585 112.974C106.832 112.974 107.048 113.024 107.232 113.124C107.419 113.224 107.569 113.35 107.681 113.502V113.028H108.525V116.346H107.681V115.861C107.573 116.017 107.423 116.147 107.232 116.25C107.044 116.35 106.826 116.4 106.579 116.4C106.299 116.4 106.044 116.328 105.812 116.184C105.585 116.041 105.403 115.839 105.267 115.58C105.136 115.316 105.07 115.015 105.07 114.675ZM107.681 114.687C107.681 114.484 107.641 114.31 107.561 114.166C107.481 114.019 107.373 113.907 107.238 113.831C107.102 113.751 106.956 113.711 106.8 113.711C106.645 113.711 106.501 113.749 106.369 113.825C106.237 113.901 106.13 114.013 106.046 114.16C105.966 114.304 105.926 114.476 105.926 114.675C105.926 114.875 105.966 115.051 106.046 115.202C106.13 115.35 106.237 115.464 106.369 115.544C106.505 115.624 106.649 115.663 106.8 115.663C106.956 115.663 107.102 115.626 107.238 115.55C107.373 115.47 107.481 115.358 107.561 115.214C107.641 115.067 107.681 114.891 107.681 114.687ZM112.476 113.028V116.346H111.632V115.927C111.524 116.071 111.382 116.184 111.207 116.268C111.035 116.348 110.847 116.388 110.644 116.388C110.384 116.388 110.155 116.334 109.955 116.226C109.755 116.115 109.598 115.953 109.482 115.741C109.37 115.526 109.314 115.27 109.314 114.975V113.028H110.153V114.855C110.153 115.118 110.218 115.322 110.35 115.466C110.482 115.606 110.662 115.675 110.889 115.675C111.121 115.675 111.302 115.606 111.434 115.466C111.566 115.322 111.632 115.118 111.632 114.855V113.028H112.476ZM115.142 112.98C115.537 112.98 115.857 113.106 116.1 113.358C116.344 113.605 116.466 113.953 116.466 114.4V116.346H115.627V114.514C115.627 114.25 115.561 114.048 115.429 113.909C115.298 113.765 115.118 113.693 114.891 113.693C114.659 113.693 114.475 113.765 114.34 113.909C114.208 114.048 114.142 114.25 114.142 114.514V116.346H113.303V113.028H114.142V113.442C114.254 113.298 114.395 113.186 114.567 113.106C114.743 113.022 114.934 112.98 115.142 112.98ZM117.047 114.687C117.047 114.344 117.117 114.044 117.257 113.789C117.397 113.529 117.59 113.33 117.838 113.19C118.085 113.046 118.369 112.974 118.688 112.974C119.099 112.974 119.439 113.078 119.706 113.286C119.978 113.49 120.159 113.777 120.251 114.148H119.347C119.299 114.005 119.217 113.893 119.101 113.813C118.99 113.729 118.85 113.687 118.682 113.687C118.443 113.687 118.253 113.775 118.113 113.951C117.974 114.122 117.904 114.368 117.904 114.687C117.904 115.003 117.974 115.248 118.113 115.424C118.253 115.596 118.443 115.681 118.682 115.681C119.022 115.681 119.243 115.53 119.347 115.226H120.251C120.159 115.586 119.978 115.871 119.706 116.083C119.435 116.294 119.095 116.4 118.688 116.4C118.369 116.4 118.085 116.33 117.838 116.19C117.59 116.047 117.397 115.847 117.257 115.592C117.117 115.332 117.047 115.031 117.047 114.687ZM122.734 112.98C122.986 112.98 123.209 113.036 123.405 113.148C123.6 113.256 123.752 113.418 123.86 113.633C123.972 113.845 124.028 114.1 124.028 114.4V116.346H123.189V114.514C123.189 114.25 123.123 114.048 122.992 113.909C122.86 113.765 122.68 113.693 122.453 113.693C122.221 113.693 122.037 113.765 121.902 113.909C121.77 114.048 121.704 114.25 121.704 114.514V116.346H120.866V111.914H121.704V113.442C121.812 113.298 121.955 113.186 122.135 113.106C122.315 113.022 122.514 112.98 122.734 112.98ZM125.25 112.633C125.102 112.633 124.979 112.587 124.879 112.495C124.783 112.4 124.735 112.282 124.735 112.142C124.735 112.002 124.783 111.887 124.879 111.795C124.979 111.699 125.102 111.651 125.25 111.651C125.398 111.651 125.52 111.699 125.615 111.795C125.715 111.887 125.765 112.002 125.765 112.142C125.765 112.282 125.715 112.4 125.615 112.495C125.52 112.587 125.398 112.633 125.25 112.633ZM125.663 113.028V116.346H124.825V113.028H125.663ZM128.33 112.98C128.726 112.98 129.045 113.106 129.288 113.358C129.532 113.605 129.654 113.953 129.654 114.4V116.346H128.815V114.514C128.815 114.25 128.749 114.048 128.618 113.909C128.486 113.765 128.306 113.693 128.079 113.693C127.847 113.693 127.664 113.765 127.528 113.909C127.396 114.048 127.33 114.25 127.33 114.514V116.346H126.492V113.028H127.33V113.442C127.442 113.298 127.584 113.186 127.755 113.106C127.931 113.022 128.123 112.98 128.33 112.98ZM131.751 112.974C131.998 112.974 132.216 113.024 132.403 113.124C132.591 113.22 132.739 113.346 132.847 113.502V113.028H133.691V116.37C133.691 116.678 133.629 116.951 133.505 117.191C133.382 117.434 133.196 117.626 132.948 117.766C132.701 117.909 132.401 117.981 132.05 117.981C131.579 117.981 131.192 117.871 130.888 117.652C130.589 117.432 130.419 117.133 130.379 116.753H131.212C131.256 116.905 131.349 117.025 131.493 117.113C131.641 117.205 131.819 117.251 132.026 117.251C132.27 117.251 132.467 117.177 132.619 117.029C132.771 116.885 132.847 116.666 132.847 116.37V115.855C132.739 116.011 132.589 116.141 132.397 116.244C132.21 116.348 131.994 116.4 131.751 116.4C131.471 116.4 131.216 116.328 130.984 116.184C130.753 116.041 130.569 115.839 130.433 115.58C130.301 115.316 130.236 115.015 130.236 114.675C130.236 114.34 130.301 114.042 130.433 113.783C130.569 113.523 130.751 113.324 130.978 113.184C131.21 113.044 131.467 112.974 131.751 112.974ZM132.847 114.687C132.847 114.484 132.807 114.31 132.727 114.166C132.647 114.019 132.539 113.907 132.403 113.831C132.268 113.751 132.122 113.711 131.966 113.711C131.811 113.711 131.667 113.749 131.535 113.825C131.403 113.901 131.296 114.013 131.212 114.16C131.132 114.304 131.092 114.476 131.092 114.675C131.092 114.875 131.132 115.051 131.212 115.202C131.296 115.35 131.403 115.464 131.535 115.544C131.671 115.624 131.815 115.663 131.966 115.663C132.122 115.663 132.268 115.626 132.403 115.55C132.539 115.47 132.647 115.358 132.727 115.214C132.807 115.067 132.847 114.891 132.847 114.687ZM41.0678 122.028L39.0136 126.915H38.1213L38.8399 125.262L37.5104 122.028H38.4507L39.3071 124.346L40.1754 122.028H41.0678ZM42.993 125.4C42.6736 125.4 42.3861 125.33 42.1306 125.19C41.8751 125.047 41.6734 124.845 41.5257 124.586C41.382 124.326 41.3101 124.027 41.3101 123.687C41.3101 123.348 41.384 123.048 41.5317 122.789C41.6834 122.529 41.889 122.33 42.1486 122.19C42.4081 122.046 42.6975 121.974 43.0169 121.974C43.3363 121.974 43.6258 122.046 43.8853 122.19C44.1448 122.33 44.3484 122.529 44.4962 122.789C44.6479 123.048 44.7237 123.348 44.7237 123.687C44.7237 124.027 44.6459 124.326 44.4902 124.586C44.3385 124.845 44.1308 125.047 43.8673 125.19C43.6078 125.33 43.3164 125.4 42.993 125.4ZM42.993 124.669C43.1447 124.669 43.2864 124.634 43.4182 124.562C43.5539 124.486 43.6617 124.374 43.7416 124.226C43.8214 124.079 43.8614 123.899 43.8614 123.687C43.8614 123.372 43.7775 123.13 43.6098 122.963C43.4461 122.791 43.2445 122.705 43.005 122.705C42.7654 122.705 42.5638 122.791 42.4001 122.963C42.2404 123.13 42.1605 123.372 42.1605 123.687C42.1605 124.003 42.2384 124.246 42.3941 124.418C42.5538 124.586 42.7534 124.669 42.993 124.669ZM48.4709 122.028V125.346H47.6265V124.927C47.5187 125.071 47.3769 125.184 47.2013 125.268C47.0296 125.348 46.8419 125.388 46.6383 125.388C46.3788 125.388 46.1492 125.334 45.9496 125.226C45.75 125.115 45.5923 124.953 45.4765 124.741C45.3647 124.526 45.3088 124.27 45.3088 123.975V122.028H46.1472V123.855C46.1472 124.118 46.2131 124.322 46.3449 124.466C46.4766 124.606 46.6563 124.675 46.8839 124.675C47.1154 124.675 47.2971 124.606 47.4289 124.466C47.5606 124.322 47.6265 124.118 47.6265 123.855V122.028H48.4709ZM50.1366 122.543C50.2444 122.368 50.3841 122.23 50.5558 122.13C50.7315 122.03 50.9311 121.98 51.1547 121.98V122.861H50.9331C50.6696 122.861 50.47 122.923 50.3342 123.046C50.2025 123.17 50.1366 123.386 50.1366 123.693V125.346H49.2982V122.028H50.1366V122.543ZM54.6676 122.717H54.0867V125.346H53.2363V122.717H52.859V122.028H53.2363V121.861C53.2363 121.453 53.352 121.154 53.5836 120.962C53.8152 120.771 54.1645 120.681 54.6316 120.693V121.4C54.428 121.396 54.2863 121.43 54.2064 121.501C54.1266 121.573 54.0867 121.703 54.0867 121.891V122.028H54.6676V122.717ZM55.6361 121.633C55.4884 121.633 55.3646 121.587 55.2648 121.495C55.169 121.4 55.1211 121.282 55.1211 121.142C55.1211 121.002 55.169 120.887 55.2648 120.795C55.3646 120.699 55.4884 120.651 55.6361 120.651C55.7839 120.651 55.9056 120.699 56.0014 120.795C56.1013 120.887 56.1512 121.002 56.1512 121.142C56.1512 121.282 56.1013 121.4 56.0014 121.495C55.9056 121.587 55.7839 121.633 55.6361 121.633ZM56.0494 122.028V125.346H55.2109V122.028H56.0494ZM57.7162 122.543C57.824 122.368 57.9637 122.23 58.1354 122.13C58.311 122.03 58.5107 121.98 58.7343 121.98V122.861H58.5127C58.2492 122.861 58.0495 122.923 57.9138 123.046C57.782 123.17 57.7162 123.386 57.7162 123.693V125.346H56.8777V122.028H57.7162V122.543ZM60.5686 125.4C60.2971 125.4 60.0536 125.352 59.838 125.256C59.6224 125.157 59.4507 125.023 59.3229 124.855C59.1992 124.687 59.1313 124.502 59.1193 124.298H59.9637C59.9797 124.426 60.0416 124.532 60.1494 124.616C60.2612 124.699 60.3989 124.741 60.5626 124.741C60.7223 124.741 60.8461 124.709 60.9339 124.646C61.0258 124.582 61.0717 124.5 61.0717 124.4C61.0717 124.292 61.0158 124.212 60.904 124.16C60.7962 124.105 60.6225 124.045 60.383 123.981C60.1354 123.921 59.9318 123.859 59.7721 123.795C59.6164 123.731 59.4806 123.633 59.3649 123.502C59.2531 123.37 59.1972 123.192 59.1972 122.969C59.1972 122.785 59.2491 122.617 59.3529 122.466C59.4607 122.314 59.6124 122.194 59.808 122.106C60.0077 122.018 60.2412 121.974 60.5087 121.974C60.904 121.974 61.2194 122.074 61.455 122.274C61.6905 122.47 61.8203 122.735 61.8442 123.07H61.0417C61.0297 122.939 60.9739 122.835 60.874 122.759C60.7782 122.679 60.6485 122.639 60.4848 122.639C60.3331 122.639 60.2153 122.667 60.1314 122.723C60.0516 122.779 60.0117 122.857 60.0117 122.957C60.0117 123.068 60.0675 123.154 60.1793 123.214C60.2911 123.27 60.4648 123.328 60.7004 123.388C60.9399 123.448 61.1375 123.51 61.2933 123.574C61.449 123.637 61.5827 123.737 61.6945 123.873C61.8103 124.005 61.8702 124.18 61.8742 124.4C61.8742 124.592 61.8203 124.763 61.7125 124.915C61.6087 125.067 61.4569 125.186 61.2573 125.274C61.0617 125.358 60.8321 125.4 60.5686 125.4ZM63.5386 122.717V124.322C63.5386 124.434 63.5645 124.516 63.6164 124.568C63.6723 124.616 63.7642 124.64 63.8919 124.64H64.2812V125.346H63.7542C63.0475 125.346 62.6942 125.003 62.6942 124.316V122.717H62.2989V122.028H62.6942V121.208H63.5386V122.028H64.2812V122.717H63.5386ZM67.7725 121.166C68.2117 121.166 68.597 121.252 68.9284 121.424C69.2637 121.595 69.5213 121.841 69.7009 122.16C69.8846 122.476 69.9764 122.843 69.9764 123.262C69.9764 123.681 69.8846 124.049 69.7009 124.364C69.5213 124.675 69.2637 124.917 68.9284 125.089C68.597 125.26 68.2117 125.346 67.7725 125.346H66.3113V121.166H67.7725ZM67.7426 124.634C68.1818 124.634 68.5211 124.514 68.7607 124.274C69.0002 124.035 69.12 123.697 69.12 123.262C69.12 122.827 69.0002 122.488 68.7607 122.244C68.5211 121.996 68.1818 121.873 67.7426 121.873H67.1497V124.634H67.7426ZM73.1672 124.55H71.5023L71.2269 125.346H70.3465L71.8497 121.16H72.8259L74.3291 125.346H73.4427L73.1672 124.55ZM72.9397 123.879L72.3348 122.13L71.7299 123.879H72.9397ZM75.7294 122.507C75.8372 122.356 75.9849 122.23 76.1725 122.13C76.3642 122.026 76.5818 121.974 76.8253 121.974C77.1088 121.974 77.3643 122.044 77.5919 122.184C77.8234 122.324 78.0051 122.523 78.1369 122.783C78.2726 123.039 78.3405 123.336 78.3405 123.675C78.3405 124.015 78.2726 124.316 78.1369 124.58C78.0051 124.839 77.8234 125.041 77.5919 125.184C77.3643 125.328 77.1088 125.4 76.8253 125.4C76.5818 125.4 76.3662 125.35 76.1785 125.25C75.9949 125.151 75.8451 125.025 75.7294 124.873V126.927H74.8909V122.028H75.7294V122.507ZM77.4841 123.675C77.4841 123.476 77.4422 123.304 77.3583 123.16C77.2785 123.013 77.1707 122.901 77.0349 122.825C76.9032 122.749 76.7594 122.711 76.6037 122.711C76.452 122.711 76.3083 122.751 76.1725 122.831C76.0408 122.907 75.933 123.019 75.8491 123.166C75.7693 123.314 75.7294 123.488 75.7294 123.687C75.7294 123.887 75.7693 124.061 75.8491 124.208C75.933 124.356 76.0408 124.47 76.1725 124.55C76.3083 124.626 76.452 124.663 76.6037 124.663C76.7594 124.663 76.9032 124.624 77.0349 124.544C77.1707 124.464 77.2785 124.35 77.3583 124.202C77.4422 124.055 77.4841 123.879 77.4841 123.675ZM79.7882 122.507C79.896 122.356 80.0437 122.23 80.2313 122.13C80.423 122.026 80.6406 121.974 80.8841 121.974C81.1676 121.974 81.4231 122.044 81.6507 122.184C81.8823 122.324 82.0639 122.523 82.1957 122.783C82.3314 123.039 82.3993 123.336 82.3993 123.675C82.3993 124.015 82.3314 124.316 82.1957 124.58C82.0639 124.839 81.8823 125.041 81.6507 125.184C81.4231 125.328 81.1676 125.4 80.8841 125.4C80.6406 125.4 80.425 125.35 80.2373 125.25C80.0537 125.151 79.904 125.025 79.7882 124.873V126.927H78.9497V122.028H79.7882V122.507ZM81.5429 123.675C81.5429 123.476 81.501 123.304 81.4171 123.16C81.3373 123.013 81.2295 122.901 81.0937 122.825C80.962 122.749 80.8182 122.711 80.6625 122.711C80.5108 122.711 80.3671 122.751 80.2313 122.831C80.0996 122.907 79.9918 123.019 79.908 123.166C79.8281 123.314 79.7882 123.488 79.7882 123.687C79.7882 123.887 79.8281 124.061 79.908 124.208C79.9918 124.356 80.0996 124.47 80.2313 124.55C80.3671 124.626 80.5108 124.663 80.6625 124.663C80.8182 124.663 80.962 124.624 81.0937 124.544C81.2295 124.464 81.3373 124.35 81.4171 124.202C81.501 124.055 81.5429 123.879 81.5429 123.675Z" fill="white"/>
<rect x="37.4805" y="136.67" width="124.268" height="17.2178" rx="2.9944" fill="white"/>
<path d="M81.108 145.691C81.108 145.28 81.1999 144.912 81.3835 144.589C81.5712 144.262 81.8247 144.008 82.1441 143.829C82.4675 143.645 82.8288 143.553 83.2281 143.553C83.6952 143.553 84.1044 143.673 84.4558 143.912C84.8071 144.152 85.0527 144.483 85.1924 144.906H84.2282C84.1324 144.707 83.9966 144.557 83.821 144.457C83.6493 144.358 83.4497 144.308 83.2221 144.308C82.9785 144.308 82.761 144.366 82.5693 144.481C82.3817 144.593 82.2339 144.753 82.1261 144.96C82.0223 145.168 81.9704 145.412 81.9704 145.691C81.9704 145.967 82.0223 146.21 82.1261 146.422C82.2339 146.629 82.3817 146.791 82.5693 146.907C82.761 147.019 82.9785 147.074 83.2221 147.074C83.4497 147.074 83.6493 147.025 83.821 146.925C83.9966 146.821 84.1324 146.669 84.2282 146.47H85.1924C85.0527 146.897 84.8071 147.23 84.4558 147.47C84.1084 147.705 83.6992 147.823 83.2281 147.823C82.8288 147.823 82.4675 147.733 82.1441 147.554C81.8247 147.37 81.5712 147.116 81.3835 146.793C81.1999 146.47 81.108 146.102 81.108 145.691ZM86.747 144.984C86.8548 144.809 86.9945 144.671 87.1662 144.571C87.3419 144.471 87.5415 144.421 87.7651 144.421V145.302H87.5435C87.28 145.302 87.0803 145.364 86.9446 145.487C86.8128 145.611 86.747 145.827 86.747 146.134V147.787H85.9085V144.469H86.747V144.984ZM91.414 146.056C91.414 146.176 91.406 146.284 91.3901 146.38H88.9646C88.9846 146.619 89.0684 146.807 89.2161 146.943C89.3639 147.078 89.5455 147.146 89.7611 147.146C90.0725 147.146 90.2941 147.013 90.4259 146.745H91.3302C91.2344 147.064 91.0507 147.328 90.7792 147.536C90.5077 147.739 90.1743 147.841 89.7791 147.841C89.4597 147.841 89.1722 147.771 88.9167 147.631C88.6652 147.488 88.4675 147.286 88.3238 147.027C88.1841 146.767 88.1142 146.468 88.1142 146.128C88.1142 145.785 88.1841 145.483 88.3238 145.224C88.4635 144.964 88.6592 144.765 88.9107 144.625C89.1622 144.485 89.4517 144.415 89.7791 144.415C90.0945 144.415 90.376 144.483 90.6235 144.619C90.875 144.755 91.0687 144.948 91.2044 145.2C91.3442 145.447 91.414 145.733 91.414 146.056ZM90.5456 145.817C90.5417 145.601 90.4638 145.43 90.3121 145.302C90.1604 145.17 89.9747 145.104 89.7551 145.104C89.5475 145.104 89.3718 145.168 89.2281 145.296C89.0884 145.42 89.0025 145.593 88.9706 145.817H90.5456ZM91.8104 146.116C91.8104 145.781 91.8763 145.483 92.008 145.224C92.1438 144.964 92.3254 144.765 92.553 144.625C92.7846 144.485 93.0421 144.415 93.3256 144.415C93.5731 144.415 93.7887 144.465 93.9724 144.565C94.16 144.665 94.3097 144.791 94.4215 144.942V144.469H95.2659V147.787H94.4215V147.302C94.3137 147.458 94.164 147.587 93.9724 147.691C93.7847 147.791 93.5671 147.841 93.3196 147.841C93.0401 147.841 92.7846 147.769 92.553 147.625C92.3254 147.482 92.1438 147.28 92.008 147.021C91.8763 146.757 91.8104 146.456 91.8104 146.116ZM94.4215 146.128C94.4215 145.925 94.3816 145.751 94.3018 145.607C94.2219 145.459 94.1141 145.348 93.9784 145.272C93.8426 145.192 93.6969 145.152 93.5412 145.152C93.3855 145.152 93.2417 145.19 93.11 145.266C92.9782 145.342 92.8704 145.453 92.7866 145.601C92.7067 145.745 92.6668 145.917 92.6668 146.116C92.6668 146.316 92.7067 146.492 92.7866 146.643C92.8704 146.791 92.9782 146.905 93.11 146.985C93.2457 147.064 93.3895 147.104 93.5412 147.104C93.6969 147.104 93.8426 147.066 93.9784 146.991C94.1141 146.911 94.2219 146.799 94.3018 146.655C94.3816 146.508 94.4215 146.332 94.4215 146.128ZM97.061 145.158V146.763C97.061 146.875 97.0869 146.957 97.1389 147.009C97.1947 147.056 97.2866 147.08 97.4143 147.08H97.8036V147.787H97.2766C96.5699 147.787 96.2166 147.444 96.2166 146.757V145.158H95.8213V144.469H96.2166V143.649H97.061V144.469H97.8036V145.158H97.061ZM99.8799 147.841C99.5605 147.841 99.273 147.771 99.0175 147.631C98.762 147.488 98.5604 147.286 98.4126 147.027C98.2689 146.767 98.197 146.468 98.197 146.128C98.197 145.789 98.2709 145.489 98.4186 145.23C98.5703 144.97 98.776 144.771 99.0355 144.631C99.295 144.487 99.5845 144.415 99.9039 144.415C100.223 144.415 100.513 144.487 100.772 144.631C101.032 144.771 101.235 144.97 101.383 145.23C101.535 145.489 101.611 145.789 101.611 146.128C101.611 146.468 101.533 146.767 101.377 147.027C101.225 147.286 101.018 147.488 100.754 147.631C100.495 147.771 100.203 147.841 99.8799 147.841ZM99.8799 147.11C100.032 147.11 100.173 147.074 100.305 147.003C100.441 146.927 100.549 146.815 100.628 146.667C100.708 146.519 100.748 146.34 100.748 146.128C100.748 145.813 100.664 145.571 100.497 145.404C100.333 145.232 100.131 145.146 99.8919 145.146C99.6523 145.146 99.4507 145.232 99.287 145.404C99.1273 145.571 99.0475 145.813 99.0475 146.128C99.0475 146.444 99.1253 146.687 99.281 146.859C99.4407 147.027 99.6403 147.11 99.8799 147.11ZM103.064 144.984C103.172 144.809 103.312 144.671 103.483 144.571C103.659 144.471 103.859 144.421 104.082 144.421V145.302H103.861C103.597 145.302 103.397 145.364 103.262 145.487C103.13 145.611 103.064 145.827 103.064 146.134V147.787H102.226V144.469H103.064V144.984ZM109.541 143.607V147.787H108.703V146.008H106.912V147.787H106.074V143.607H106.912V145.326H108.703V143.607H109.541ZM113.499 144.469V147.787H112.654V147.368C112.547 147.512 112.405 147.625 112.229 147.709C112.058 147.789 111.87 147.829 111.666 147.829C111.407 147.829 111.177 147.775 110.978 147.667C110.778 147.556 110.62 147.394 110.504 147.182C110.393 146.967 110.337 146.711 110.337 146.416V144.469H111.175V146.296C111.175 146.559 111.241 146.763 111.373 146.907C111.505 147.046 111.684 147.116 111.912 147.116C112.143 147.116 112.325 147.046 112.457 146.907C112.589 146.763 112.654 146.559 112.654 146.296V144.469H113.499ZM115.165 144.954C115.272 144.795 115.42 144.665 115.608 144.565C115.799 144.465 116.017 144.415 116.26 144.415C116.544 144.415 116.799 144.485 117.027 144.625C117.259 144.765 117.44 144.964 117.572 145.224C117.708 145.479 117.776 145.777 117.776 146.116C117.776 146.456 117.708 146.757 117.572 147.021C117.44 147.28 117.259 147.482 117.027 147.625C116.799 147.769 116.544 147.841 116.26 147.841C116.013 147.841 115.795 147.793 115.608 147.697C115.424 147.597 115.276 147.47 115.165 147.314V147.787H114.326V143.355H115.165V144.954ZM116.919 146.116C116.919 145.917 116.877 145.745 116.793 145.601C116.714 145.453 116.606 145.342 116.47 145.266C116.338 145.19 116.195 145.152 116.039 145.152C115.887 145.152 115.743 145.192 115.608 145.272C115.476 145.348 115.368 145.459 115.284 145.607C115.204 145.755 115.165 145.929 115.165 146.128C115.165 146.328 115.204 146.502 115.284 146.649C115.368 146.797 115.476 146.911 115.608 146.991C115.743 147.066 115.887 147.104 116.039 147.104C116.195 147.104 116.338 147.064 116.47 146.985C116.606 146.905 116.714 146.791 116.793 146.643C116.877 146.496 116.919 146.32 116.919 146.116Z" fill="#F07100"/>
<rect x="33.3633" y="77.1562" width="112.29" height="14.972" rx="2.9944" fill="#EDEAEA"/>
<path d="M41.4115 86.1393C40.7315 86.1393 40.156 85.9038 39.685 85.4328C39.214 84.9619 38.9785 84.3864 38.9785 83.7064C38.9785 83.0264 39.214 82.4509 39.685 81.9799C40.156 81.5089 40.7315 81.2734 41.4115 81.2734C42.0914 81.2734 42.6669 81.5089 43.1379 81.9799C43.6089 82.4509 43.8444 83.0264 43.8444 83.7064C43.8444 83.9809 43.8007 84.2398 43.7134 84.4831C43.6261 84.7264 43.5075 84.9416 43.3578 85.1287L45.4539 87.2248C45.5225 87.2934 45.5568 87.3808 45.5568 87.4868C45.5568 87.5929 45.5225 87.6802 45.4539 87.7488C45.3853 87.8175 45.2979 87.8518 45.1919 87.8518C45.0858 87.8518 44.9985 87.8175 44.9299 87.7488L42.8338 85.6527C42.6467 85.8025 42.4314 85.921 42.1881 86.0083C41.9448 86.0957 41.686 86.1393 41.4115 86.1393ZM41.4115 85.3907C41.8793 85.3907 42.277 85.227 42.6045 84.8995C42.9321 84.572 43.0958 84.1743 43.0958 83.7064C43.0958 83.2385 42.9321 82.8408 42.6045 82.5133C42.277 82.1858 41.8793 82.022 41.4115 82.022C40.9436 82.022 40.5459 82.1858 40.2184 82.5133C39.8909 82.8408 39.7271 83.2385 39.7271 83.7064C39.7271 84.1743 39.8909 84.572 40.2184 84.8995C40.5459 85.227 40.9436 85.3907 41.4115 85.3907Z" fill="#666666"/>
<path d="M52.1717 85.9335C51.9446 85.9335 51.7403 85.8945 51.5586 85.8167C51.3769 85.7356 51.2342 85.6221 51.1304 85.4761C51.0266 85.3301 50.9747 85.1598 50.9747 84.9652H51.5683C51.5813 85.1111 51.6381 85.2312 51.7386 85.3252C51.8424 85.4193 51.9868 85.4663 52.1717 85.4663C52.3631 85.4663 52.5123 85.4209 52.6194 85.3301C52.7264 85.236 52.7799 85.116 52.7799 84.97C52.7799 84.8565 52.7459 84.764 52.6778 84.6927C52.6129 84.6213 52.5302 84.5662 52.4296 84.5272C52.3323 84.4883 52.196 84.4461 52.0209 84.4007C51.8003 84.3423 51.6202 84.2839 51.4807 84.2255C51.3445 84.1639 51.2277 84.0698 51.1304 83.9433C51.0331 83.8168 50.9844 83.6481 50.9844 83.4373C50.9844 83.2426 51.0331 83.0723 51.1304 82.9263C51.2277 82.7804 51.364 82.6685 51.5391 82.5906C51.7143 82.5127 51.9171 82.4738 52.1474 82.4738C52.475 82.4738 52.7426 82.5565 52.9502 82.722C53.1611 82.8842 53.2779 83.108 53.3006 83.3935H52.6875C52.6778 83.2702 52.6194 83.1648 52.5123 83.0772C52.4053 82.9896 52.2642 82.9458 52.089 82.9458C51.93 82.9458 51.8003 82.9864 51.6997 83.0675C51.5991 83.1486 51.5489 83.2653 51.5489 83.4178C51.5489 83.5216 51.5797 83.6076 51.6413 83.6757C51.7062 83.7406 51.7873 83.7925 51.8846 83.8314C51.9819 83.8703 52.1149 83.9125 52.2836 83.9579C52.5074 84.0196 52.6891 84.0812 52.8286 84.1428C52.9713 84.2045 53.0914 84.3002 53.1887 84.4299C53.2892 84.5564 53.3395 84.7267 53.3395 84.9408C53.3395 85.1128 53.2925 85.275 53.1984 85.4274C53.1076 85.5799 52.973 85.7032 52.7945 85.7972C52.6194 85.8881 52.4118 85.9335 52.1717 85.9335ZM56.4513 84.4932C56.4513 84.5937 56.4448 84.6846 56.4319 84.7657H54.3833C54.3995 84.9798 54.479 85.1517 54.6218 85.2814C54.7645 85.4112 54.9397 85.4761 55.1473 85.4761C55.4457 85.4761 55.6566 85.3512 55.7798 85.1014H56.3783C56.2973 85.3479 56.1497 85.5507 55.9356 85.7096C55.7247 85.8654 55.4619 85.9432 55.1473 85.9432C54.891 85.9432 54.6607 85.8864 54.4563 85.7729C54.2552 85.6561 54.0962 85.4939 53.9795 85.2863C53.8659 85.0755 53.8092 84.8322 53.8092 84.5564C53.8092 84.2807 53.8643 84.039 53.9746 83.8314C54.0881 83.6206 54.2455 83.4584 54.4466 83.3448C54.651 83.2313 54.8845 83.1745 55.1473 83.1745C55.4003 83.1745 55.6258 83.2297 55.8236 83.3399C56.0215 83.4502 56.1756 83.606 56.2859 83.8071C56.3962 84.005 56.4513 84.2337 56.4513 84.4932ZM55.8723 84.318C55.8691 84.1136 55.7961 83.9498 55.6533 83.8265C55.5106 83.7033 55.3338 83.6416 55.1229 83.6416C54.9316 83.6416 54.7677 83.7033 54.6315 83.8265C54.4952 83.9466 54.4141 84.1104 54.3882 84.318H55.8723ZM56.8123 84.5467C56.8123 84.2774 56.8675 84.039 56.9778 83.8314C57.0913 83.6238 57.2438 83.4632 57.4352 83.3497C57.6298 83.2329 57.8439 83.1745 58.0775 83.1745C58.2883 83.1745 58.4716 83.2167 58.6273 83.301C58.7863 83.3821 58.9128 83.4843 59.0068 83.6076V83.2183H59.5664V85.8994H59.0068V85.5004C58.9128 85.6269 58.7846 85.7324 58.6224 85.8167C58.4602 85.901 58.2753 85.9432 58.0677 85.9432C57.8374 85.9432 57.6266 85.8848 57.4352 85.768C57.2438 85.648 57.0913 85.4826 56.9778 85.2717C56.8675 85.0576 56.8123 84.8159 56.8123 84.5467ZM59.0068 84.5564C59.0068 84.3715 58.9679 84.2109 58.8901 84.0747C58.8155 83.9385 58.7165 83.8346 58.5932 83.7633C58.47 83.6919 58.337 83.6562 58.1942 83.6562C58.0515 83.6562 57.9185 83.6919 57.7952 83.7633C57.672 83.8314 57.5714 83.9336 57.4936 84.0698C57.4189 84.2028 57.3816 84.3618 57.3816 84.5467C57.3816 84.7316 57.4189 84.8938 57.4936 85.0333C57.5714 85.1728 57.672 85.2798 57.7952 85.3544C57.9218 85.4258 58.0548 85.4615 58.1942 85.4615C58.337 85.4615 58.47 85.4258 58.5932 85.3544C58.7165 85.2831 58.8155 85.1793 58.8901 85.043C58.9679 84.9035 59.0068 84.7413 59.0068 84.5564ZM60.8497 83.6076C60.9308 83.4713 61.0379 83.3659 61.1709 83.2913C61.3071 83.2134 61.4677 83.1745 61.6526 83.1745V83.7487H61.5115C61.2942 83.7487 61.1287 83.8038 61.0152 83.9141C60.9049 84.0244 60.8497 84.2158 60.8497 84.4883V85.8994H60.295V83.2183H60.8497V83.6076ZM61.9776 84.5564C61.9776 84.2807 62.0327 84.039 62.143 83.8314C62.2566 83.6206 62.4123 83.4584 62.6102 83.3448C62.808 83.2313 63.0351 83.1745 63.2914 83.1745C63.6158 83.1745 63.8834 83.2524 64.0943 83.4081C64.3084 83.5605 64.4527 83.7795 64.5273 84.065H63.9288C63.8802 83.932 63.8023 83.8282 63.6953 83.7536C63.5882 83.6789 63.4536 83.6416 63.2914 83.6416C63.0643 83.6416 62.8827 83.7227 62.7464 83.8849C62.6134 84.0439 62.5469 84.2677 62.5469 84.5564C62.5469 84.8451 62.6134 85.0706 62.7464 85.2328C62.8827 85.395 63.0643 85.4761 63.2914 85.4761C63.6125 85.4761 63.825 85.335 63.9288 85.0527H64.5273C64.4495 85.3252 64.3035 85.5426 64.0894 85.7048C63.8753 85.8637 63.6093 85.9432 63.2914 85.9432C63.0351 85.9432 62.808 85.8864 62.6102 85.7729C62.4123 85.6561 62.2566 85.4939 62.143 85.2863C62.0327 85.0755 61.9776 84.8322 61.9776 84.5564ZM66.4669 83.1745C66.6713 83.1745 66.8529 83.2183 67.0119 83.3059C67.1741 83.3935 67.3006 83.5232 67.3914 83.6952C67.4855 83.8671 67.5326 84.0747 67.5326 84.318V85.8994H66.9827V84.4007C66.9827 84.1607 66.9227 83.9774 66.8027 83.8509C66.6826 83.7211 66.5188 83.6562 66.3112 83.6562C66.1036 83.6562 65.9382 83.7211 65.8149 83.8509C65.6949 83.9774 65.6349 84.1607 65.6349 84.4007V85.8994H65.0801V82.2986H65.6349V83.5297C65.7289 83.4162 65.8473 83.3286 65.9901 83.267C66.136 83.2053 66.295 83.1745 66.4669 83.1745ZM70.6281 83.6708H70.1318V85.8994H69.5722V83.6708H69.256V83.2183H69.5722V83.0285C69.5722 82.7204 69.6533 82.4965 69.8155 82.357C69.981 82.2143 70.2389 82.1429 70.5892 82.1429V82.6052C70.4205 82.6052 70.3021 82.6376 70.234 82.7025C70.1659 82.7642 70.1318 82.8728 70.1318 83.0285V83.2183H70.6281V83.6708ZM72.2827 85.9432C72.0297 85.9432 71.801 85.8864 71.5966 85.7729C71.3922 85.6561 71.2317 85.4939 71.1149 85.2863C70.9981 85.0755 70.9397 84.8322 70.9397 84.5564C70.9397 84.2839 70.9997 84.0423 71.1197 83.8314C71.2398 83.6206 71.4036 83.4584 71.6112 83.3448C71.8188 83.2313 72.0508 83.1745 72.307 83.1745C72.5633 83.1745 72.7952 83.2313 73.0029 83.3448C73.2105 83.4584 73.3743 83.6206 73.4943 83.8314C73.6143 84.0423 73.6743 84.2839 73.6743 84.5564C73.6743 84.8289 73.6127 85.0706 73.4894 85.2814C73.3662 85.4923 73.1975 85.6561 72.9834 85.7729C72.7725 85.8864 72.539 85.9432 72.2827 85.9432ZM72.2827 85.4615C72.4254 85.4615 72.5584 85.4274 72.6817 85.3593C72.8082 85.2912 72.9104 85.189 72.9883 85.0527C73.0661 84.9165 73.105 84.7511 73.105 84.5564C73.105 84.3618 73.0677 84.198 72.9931 84.065C72.9185 83.9287 72.8196 83.8265 72.6963 83.7584C72.573 83.6903 72.44 83.6562 72.2973 83.6562C72.1546 83.6562 72.0216 83.6903 71.8983 83.7584C71.7783 83.8265 71.6826 83.9287 71.6112 84.065C71.5398 84.198 71.5042 84.3618 71.5042 84.5564C71.5042 84.8451 71.5771 85.069 71.7231 85.2279C71.8723 85.3836 72.0589 85.4615 72.2827 85.4615ZM74.7774 83.6076C74.8585 83.4713 74.9656 83.3659 75.0986 83.2913C75.2348 83.2134 75.3954 83.1745 75.5803 83.1745V83.7487H75.4392C75.2218 83.7487 75.0564 83.8038 74.9429 83.9141C74.8326 84.0244 74.7774 84.2158 74.7774 84.4883V85.8994H74.2227V83.2183H74.7774V83.6076ZM78.4587 82.5176C78.8188 82.5176 79.1335 82.5874 79.4027 82.7268C79.6752 82.8631 79.8845 83.061 80.0304 83.3205C80.1797 83.5768 80.2543 83.8768 80.2543 84.2207C80.2543 84.5645 80.1797 84.863 80.0304 85.116C79.8845 85.369 79.6752 85.5637 79.4027 85.6999C79.1335 85.8329 78.8188 85.8994 78.4587 85.8994H77.3542V82.5176H78.4587ZM78.4587 85.4469C78.8545 85.4469 79.1578 85.3398 79.3687 85.1257C79.5795 84.9116 79.685 84.61 79.685 84.2207C79.685 83.8282 79.5795 83.5216 79.3687 83.301C79.1578 83.0804 78.8545 82.9701 78.4587 82.9701H77.9089V85.4469H78.4587ZM82.8428 85.2085H81.4269L81.1836 85.8994H80.6045L81.8161 82.5127H82.4584L83.67 85.8994H83.0861L82.8428 85.2085ZM82.6871 84.7559L82.1373 83.1842L81.5826 84.7559H82.6871ZM84.7516 83.6124C84.8456 83.4892 84.9738 83.3854 85.136 83.301C85.2982 83.2167 85.4815 83.1745 85.6858 83.1745C85.9194 83.1745 86.1319 83.2329 86.3233 83.3497C86.5179 83.4632 86.6704 83.6238 86.7807 83.8314C86.8909 84.039 86.9461 84.2774 86.9461 84.5467C86.9461 84.8159 86.8909 85.0576 86.7807 85.2717C86.6704 85.4826 86.5179 85.648 86.3233 85.768C86.1319 85.8848 85.9194 85.9432 85.6858 85.9432C85.4815 85.9432 85.2998 85.9027 85.1408 85.8216C84.9819 85.7372 84.8521 85.6334 84.7516 85.5101V87.1743H84.1969V83.2183H84.7516V83.6124ZM86.3816 84.5467C86.3816 84.3618 86.3427 84.2028 86.2649 84.0698C86.1903 83.9336 86.0897 83.8314 85.9632 83.7633C85.8399 83.6919 85.7069 83.6562 85.5642 83.6562C85.4247 83.6562 85.2917 83.6919 85.1652 83.7633C85.0419 83.8346 84.9413 83.9385 84.8635 84.0747C84.7889 84.2109 84.7516 84.3715 84.7516 84.5564C84.7516 84.7413 84.7889 84.9035 84.8635 85.043C84.9413 85.1793 85.0419 85.2831 85.1652 85.3544C85.2917 85.4258 85.4247 85.4615 85.5642 85.4615C85.7069 85.4615 85.8399 85.4258 85.9632 85.3544C86.0897 85.2798 86.1903 85.1728 86.2649 85.0333C86.3427 84.8938 86.3816 84.7316 86.3816 84.5467ZM88.0494 83.6124C88.1434 83.4892 88.2716 83.3854 88.4338 83.301C88.596 83.2167 88.7792 83.1745 88.9836 83.1745C89.2172 83.1745 89.4297 83.2329 89.621 83.3497C89.8157 83.4632 89.9681 83.6238 90.0784 83.8314C90.1887 84.039 90.2439 84.2774 90.2439 84.5467C90.2439 84.8159 90.1887 85.0576 90.0784 85.2717C89.9681 85.4826 89.8157 85.648 89.621 85.768C89.4297 85.8848 89.2172 85.9432 88.9836 85.9432C88.7792 85.9432 88.5976 85.9027 88.4386 85.8216C88.2797 85.7372 88.1499 85.6334 88.0494 85.5101V87.1743H87.4946V83.2183H88.0494V83.6124ZM89.6794 84.5467C89.6794 84.3618 89.6405 84.2028 89.5627 84.0698C89.488 83.9336 89.3875 83.8314 89.261 83.7633C89.1377 83.6919 89.0047 83.6562 88.862 83.6562C88.7225 83.6562 88.5895 83.6919 88.463 83.7633C88.3397 83.8346 88.2391 83.9385 88.1613 84.0747C88.0867 84.2109 88.0494 84.3715 88.0494 84.5564C88.0494 84.7413 88.0867 84.9035 88.1613 85.043C88.2391 85.1793 88.3397 85.2831 88.463 85.3544C88.5895 85.4258 88.7225 85.4615 88.862 85.4615C89.0047 85.4615 89.1377 85.4258 89.261 85.3544C89.3875 85.2798 89.488 85.1728 89.5627 85.0333C89.6405 84.8938 89.6794 84.7316 89.6794 84.5467ZM91.7656 85.9432C91.5548 85.9432 91.365 85.9059 91.1963 85.8313C91.0309 85.7534 90.8995 85.6496 90.8022 85.5199C90.7049 85.3869 90.6529 85.2393 90.6465 85.0771H91.2206C91.2304 85.1906 91.2839 85.2863 91.3812 85.3642C91.4818 85.4388 91.6067 85.4761 91.7559 85.4761C91.9116 85.4761 92.0316 85.4469 92.116 85.3885C92.2035 85.3269 92.2473 85.249 92.2473 85.1549C92.2473 85.0544 92.1987 84.9798 92.1014 84.9311C92.0073 84.8824 91.8564 84.8289 91.6488 84.7705C91.4477 84.7154 91.2839 84.6619 91.1574 84.61C91.0309 84.558 90.9206 84.4786 90.8265 84.3715C90.7357 84.2645 90.6903 84.1234 90.6903 83.9482C90.6903 83.8055 90.7324 83.6757 90.8168 83.5589C90.9011 83.4389 91.0211 83.3448 91.1768 83.2767C91.3358 83.2086 91.5175 83.1745 91.7218 83.1745C92.0268 83.1745 92.2717 83.2524 92.4566 83.4081C92.6447 83.5605 92.7453 83.7698 92.7583 84.0358H92.2035C92.1938 83.9157 92.1452 83.8201 92.0576 83.7487C91.97 83.6773 91.8516 83.6416 91.7024 83.6416C91.5564 83.6416 91.4445 83.6692 91.3666 83.7244C91.2888 83.7795 91.2498 83.8525 91.2498 83.9433C91.2498 84.0147 91.2758 84.0747 91.3277 84.1234C91.3796 84.172 91.4428 84.2109 91.5175 84.2401C91.5921 84.2661 91.7024 84.3002 91.8483 84.3423C92.043 84.3942 92.2019 84.4478 92.3252 84.5029C92.4517 84.5548 92.5604 84.6327 92.6512 84.7365C92.742 84.8403 92.7891 84.9781 92.7923 85.1501C92.7923 85.3025 92.7502 85.4388 92.6658 85.5588C92.5815 85.6788 92.4614 85.7729 92.3057 85.841C92.1533 85.9091 91.9732 85.9432 91.7656 85.9432ZM93.6155 85.9335C93.515 85.9335 93.4306 85.8994 93.3625 85.8313C93.2944 85.7632 93.2603 85.6788 93.2603 85.5783C93.2603 85.4777 93.2944 85.3934 93.3625 85.3252C93.4306 85.2571 93.515 85.2231 93.6155 85.2231C93.7129 85.2231 93.7956 85.2571 93.8637 85.3252C93.9318 85.3934 93.9659 85.4777 93.9659 85.5783C93.9659 85.6788 93.9318 85.7632 93.8637 85.8313C93.7956 85.8994 93.7129 85.9335 93.6155 85.9335ZM94.7892 85.9335C94.6887 85.9335 94.6043 85.8994 94.5362 85.8313C94.4681 85.7632 94.434 85.6788 94.434 85.5783C94.434 85.4777 94.4681 85.3934 94.5362 85.3252C94.6043 85.2571 94.6887 85.2231 94.7892 85.2231C94.8866 85.2231 94.9693 85.2571 95.0374 85.3252C95.1055 85.3934 95.1396 85.4777 95.1396 85.5783C95.1396 85.6788 95.1055 85.7632 95.0374 85.8313C94.9693 85.8994 94.8866 85.9335 94.7892 85.9335ZM95.963 85.9335C95.8624 85.9335 95.778 85.8994 95.7099 85.8313C95.6418 85.7632 95.6077 85.6788 95.6077 85.5783C95.6077 85.4777 95.6418 85.3934 95.7099 85.3252C95.778 85.2571 95.8624 85.2231 95.963 85.2231C96.0603 85.2231 96.143 85.2571 96.2111 85.3252C96.2792 85.3934 96.3133 85.4777 96.3133 85.5783C96.3133 85.6788 96.2792 85.7632 96.2111 85.8313C96.143 85.8994 96.0603 85.9335 95.963 85.9335ZM97.1367 85.9335C97.0361 85.9335 96.9518 85.8994 96.8836 85.8313C96.8155 85.7632 96.7814 85.6788 96.7814 85.5783C96.7814 85.4777 96.8155 85.3934 96.8836 85.3252C96.9518 85.2571 97.0361 85.2231 97.1367 85.2231C97.234 85.2231 97.3167 85.2571 97.3848 85.3252C97.4529 85.3934 97.487 85.4777 97.487 85.5783C97.487 85.6788 97.4529 85.7632 97.3848 85.8313C97.3167 85.8994 97.234 85.9335 97.1367 85.9335Z" fill="#666666"/>
<rect x="151.643" y="77.1562" width="14.972" height="14.972" rx="2.44441" fill="#F07100"/>
<path d="M156.883 87.6368C156.777 87.6368 156.688 87.6009 156.616 87.5291C156.544 87.4574 156.508 87.3685 156.508 87.2625V85.0167H156.134C156.028 85.0167 155.939 84.9808 155.867 84.909C155.796 84.8373 155.76 84.7484 155.76 84.6424C155.76 84.5363 155.796 84.4474 155.867 84.3757C155.939 84.3039 156.028 84.268 156.134 84.268H157.631C157.737 84.268 157.826 84.3039 157.898 84.3757C157.97 84.4474 158.006 84.5363 158.006 84.6424C158.006 84.7484 157.97 84.8373 157.898 84.909C157.826 84.9808 157.737 85.0167 157.631 85.0167H157.257V87.2625C157.257 87.3685 157.221 87.4574 157.149 87.5291C157.078 87.6009 156.989 87.6368 156.883 87.6368ZM156.883 83.5194C156.777 83.5194 156.688 83.4836 156.616 83.4118C156.544 83.3401 156.508 83.2512 156.508 83.1451V82.0222C156.508 81.9162 156.544 81.8273 156.616 81.7556C156.688 81.6838 156.777 81.6479 156.883 81.6479C156.989 81.6479 157.078 81.6838 157.149 81.7556C157.221 81.8273 157.257 81.9162 157.257 82.0222V83.1451C157.257 83.2512 157.221 83.3401 157.149 83.4118C157.078 83.4836 156.989 83.5194 156.883 83.5194ZM158.38 83.5194C158.274 83.5194 158.185 83.4836 158.113 83.4118C158.041 83.3401 158.006 83.2512 158.006 83.1451C158.006 83.0391 158.041 82.9502 158.113 82.8785C158.185 82.8067 158.274 82.7708 158.38 82.7708H158.754V82.0222C158.754 81.9162 158.79 81.8273 158.862 81.7556C158.934 81.6838 159.022 81.6479 159.128 81.6479C159.235 81.6479 159.323 81.6838 159.395 81.7556C159.467 81.8273 159.503 81.9162 159.503 82.0222V82.7708H159.877C159.983 82.7708 160.072 82.8067 160.144 82.8785C160.215 82.9502 160.251 83.0391 160.251 83.1451C160.251 83.2512 160.215 83.3401 160.144 83.4118C160.072 83.4836 159.983 83.5194 159.877 83.5194H158.38ZM159.128 87.6368C159.022 87.6368 158.934 87.6009 158.862 87.5291C158.79 87.4574 158.754 87.3685 158.754 87.2625V84.6424C158.754 84.5363 158.79 84.4474 158.862 84.3757C158.934 84.3039 159.022 84.268 159.128 84.268C159.235 84.268 159.323 84.3039 159.395 84.3757C159.467 84.4474 159.503 84.5363 159.503 84.6424V87.2625C159.503 87.3685 159.467 87.4574 159.395 87.5291C159.323 87.6009 159.235 87.6368 159.128 87.6368ZM161.374 87.6368C161.268 87.6368 161.179 87.6009 161.108 87.5291C161.036 87.4574 161 87.3685 161 87.2625V86.5139H160.626C160.52 86.5139 160.431 86.478 160.359 86.4062C160.287 86.3345 160.251 86.2456 160.251 86.1396C160.251 86.0335 160.287 85.9446 160.359 85.8729C160.431 85.8011 160.52 85.7653 160.626 85.7653H162.123C162.229 85.7653 162.318 85.8011 162.39 85.8729C162.461 85.9446 162.497 86.0335 162.497 86.1396C162.497 86.2456 162.461 86.3345 162.39 86.4062C162.318 86.478 162.229 86.5139 162.123 86.5139H161.749V87.2625C161.749 87.3685 161.713 87.4574 161.641 87.5291C161.569 87.6009 161.48 87.6368 161.374 87.6368ZM161.374 85.0167C161.268 85.0167 161.179 84.9808 161.108 84.909C161.036 84.8373 161 84.7484 161 84.6424V82.0222C161 81.9162 161.036 81.8273 161.108 81.7556C161.179 81.6838 161.268 81.6479 161.374 81.6479C161.48 81.6479 161.569 81.6838 161.641 81.7556C161.713 81.8273 161.749 81.9162 161.749 82.0222V84.6424C161.749 84.7484 161.713 84.8373 161.641 84.909C161.569 84.9808 161.48 85.0167 161.374 85.0167Z" fill="white"/>
<path d="M159.503 66.6759C159.297 66.6759 159.12 66.6026 158.974 66.456C158.827 66.3094 158.754 66.1331 158.754 65.9273V60.6871C158.754 60.4812 158.827 60.305 158.974 60.1584C159.12 60.0118 159.297 59.9385 159.503 59.9385H164.743C164.949 59.9385 165.125 60.0118 165.271 60.1584C165.418 60.305 165.491 60.4812 165.491 60.6871V61.6228H164.743V60.6871H159.503V65.9273H164.743V64.9915H165.491V65.9273C165.491 66.1331 165.418 66.3094 165.271 66.456C165.125 66.6026 164.949 66.6759 164.743 66.6759H159.503ZM162.497 65.1787C162.291 65.1787 162.115 65.1054 161.968 64.9588C161.822 64.8122 161.748 64.6359 161.748 64.4301V62.1843C161.748 61.9784 161.822 61.8022 161.968 61.6556C162.115 61.509 162.291 61.4357 162.497 61.4357H165.117C165.323 61.4357 165.499 61.509 165.646 61.6556C165.792 61.8022 165.866 61.9784 165.866 62.1843V64.4301C165.866 64.6359 165.792 64.8122 165.646 64.9588C165.499 65.1054 165.323 65.1787 165.117 65.1787H162.497ZM165.117 64.4301V62.1843H162.497V64.4301H165.117ZM163.62 63.8686C163.776 63.8686 163.908 63.814 164.018 63.7049C164.127 63.5957 164.181 63.4631 164.181 63.3072C164.181 63.1512 164.127 63.0187 164.018 62.9095C163.908 62.8003 163.776 62.7457 163.62 62.7457C163.464 62.7457 163.331 62.8003 163.222 62.9095C163.113 63.0187 163.058 63.1512 163.058 63.3072C163.058 63.4631 163.113 63.5957 163.222 63.7049C163.331 63.814 163.464 63.8686 163.62 63.8686Z" fill="#333333"/>
<path d="M35.0971 60.3642C35.5912 60.3642 36.0246 60.4608 36.3974 60.6539C36.7747 60.847 37.0644 61.1233 37.2665 61.4826C37.4731 61.8374 37.5765 62.2507 37.5765 62.7223C37.5765 63.1939 37.4731 63.6071 37.2665 63.962C37.0644 64.3123 36.7747 64.584 36.3974 64.7772C36.0246 64.9703 35.5912 65.0669 35.0971 65.0669H33.4532V60.3642H35.0971ZM35.0634 64.2651C35.5575 64.2651 35.9393 64.1304 36.2088 63.8609C36.4783 63.5914 36.613 63.2119 36.613 62.7223C36.613 62.2327 36.4783 61.8509 36.2088 61.5769C35.9393 61.2984 35.5575 61.1592 35.0634 61.1592H34.3964V64.2651H35.0634ZM41.1661 64.1708H39.2931L38.9832 65.0669H37.9928L39.6839 60.3575H40.7821L42.4732 65.0669H41.476L41.1661 64.1708ZM40.9101 63.4162L40.2296 61.4489L39.5491 63.4162H40.9101ZM44.0485 61.8734C44.1698 61.7027 44.336 61.5612 44.5471 61.4489C44.7627 61.3321 45.0075 61.2737 45.2815 61.2737C45.6004 61.2737 45.8878 61.3523 46.1438 61.5095C46.4044 61.6668 46.6087 61.8913 46.757 62.1833C46.9097 62.4707 46.986 62.8054 46.986 63.1872C46.986 63.5689 46.9097 63.9081 46.757 64.2045C46.6087 64.4965 46.4044 64.7233 46.1438 64.885C45.8878 65.0467 45.6004 65.1275 45.2815 65.1275C45.0075 65.1275 44.7649 65.0714 44.5538 64.9591C44.3472 64.8468 44.1788 64.7053 44.0485 64.5346V66.8456H43.1053V61.3344H44.0485V61.8734ZM46.0226 63.1872C46.0226 62.9626 45.9754 62.7694 45.8811 62.6077C45.7913 62.4416 45.67 62.3158 45.5173 62.2304C45.369 62.1451 45.2073 62.1024 45.0322 62.1024C44.8615 62.1024 44.6998 62.1474 44.5471 62.2372C44.3989 62.3225 44.2776 62.4483 44.1833 62.6145C44.0934 62.7807 44.0485 62.9761 44.0485 63.2006C44.0485 63.4252 44.0934 63.6206 44.1833 63.7868C44.2776 63.953 44.3989 64.081 44.5471 64.1708C44.6998 64.2562 44.8615 64.2988 45.0322 64.2988C45.2073 64.2988 45.369 64.2539 45.5173 64.1641C45.67 64.0743 45.7913 63.9462 45.8811 63.7801C45.9754 63.6139 46.0226 63.4162 46.0226 63.1872ZM48.6147 61.8734C48.736 61.7027 48.9021 61.5612 49.1133 61.4489C49.3288 61.3321 49.5736 61.2737 49.8476 61.2737C50.1665 61.2737 50.454 61.3523 50.71 61.5095C50.9705 61.6668 51.1749 61.8913 51.3231 62.1833C51.4758 62.4707 51.5522 62.8054 51.5522 63.1872C51.5522 63.5689 51.4758 63.9081 51.3231 64.2045C51.1749 64.4965 50.9705 64.7233 50.71 64.885C50.454 65.0467 50.1665 65.1275 49.8476 65.1275C49.5736 65.1275 49.3311 65.0714 49.12 64.9591C48.9134 64.8468 48.7449 64.7053 48.6147 64.5346V66.8456H47.6714V61.3344H48.6147V61.8734ZM50.5887 63.1872C50.5887 62.9626 50.5416 62.7694 50.4473 62.6077C50.3574 62.4416 50.2362 62.3158 50.0834 62.2304C49.9352 62.1451 49.7735 62.1024 49.5983 62.1024C49.4277 62.1024 49.266 62.1474 49.1133 62.2372C48.965 62.3225 48.8438 62.4483 48.7494 62.6145C48.6596 62.7807 48.6147 62.9761 48.6147 63.2006C48.6147 63.4252 48.6596 63.6206 48.7494 63.7868C48.8438 63.953 48.965 64.081 49.1133 64.1708C49.266 64.2562 49.4277 64.2988 49.5983 64.2988C49.7735 64.2988 49.9352 64.2539 50.0834 64.1641C50.2362 64.0743 50.3574 63.9462 50.4473 63.7801C50.5416 63.6139 50.5887 63.4162 50.5887 63.1872ZM53.8613 65.1141C53.5334 65.1141 53.237 65.0579 52.972 64.9456C52.7115 64.8333 52.5049 64.6716 52.3522 64.4605C52.1994 64.2494 52.1208 64.0001 52.1163 63.7127H53.127C53.1404 63.9058 53.2078 64.0585 53.3291 64.1708C53.4548 64.2831 53.6255 64.3393 53.8411 64.3393C54.0612 64.3393 54.2341 64.2876 54.3599 64.1843C54.4857 64.0765 54.5485 63.9373 54.5485 63.7666C54.5485 63.6273 54.5059 63.5128 54.4205 63.423C54.3352 63.3331 54.2274 63.2635 54.0971 63.2141C53.9714 63.1602 53.7962 63.1018 53.5716 63.0389C53.2662 62.9491 53.0169 62.8615 52.8238 62.7762C52.6351 62.6863 52.4712 62.5538 52.3319 62.3787C52.1972 62.199 52.1298 61.961 52.1298 61.6645C52.1298 61.386 52.1994 61.1435 52.3387 60.9369C52.4779 60.7303 52.6733 60.573 52.9248 60.4652C53.1764 60.353 53.4638 60.2968 53.7872 60.2968C54.2723 60.2968 54.6653 60.4158 54.9663 60.6539C55.2717 60.8875 55.4401 61.2153 55.4716 61.6376H54.434C54.425 61.4759 54.3554 61.3434 54.2252 61.2401C54.0994 61.1323 53.931 61.0784 53.7198 61.0784C53.5357 61.0784 53.3875 61.1255 53.2752 61.2198C53.1674 61.3142 53.1135 61.4512 53.1135 61.6308C53.1135 61.7566 53.1539 61.8621 53.2348 61.9475C53.3201 62.0283 53.4234 62.0957 53.5447 62.1496C53.6704 62.199 53.8456 62.2574 54.0702 62.3248C54.3756 62.4146 54.6249 62.5044 54.818 62.5943C55.0112 62.6841 55.1774 62.8188 55.3166 62.9985C55.4558 63.1782 55.5255 63.414 55.5255 63.7059C55.5255 63.9575 55.4603 64.191 55.3301 64.4066C55.1998 64.6222 55.0089 64.7952 54.7574 64.9254C54.5059 65.0512 54.2072 65.1141 53.8613 65.1141ZM57.4414 62.1092V63.9148C57.4414 64.0406 57.4706 64.1326 57.529 64.191C57.5919 64.2449 57.6952 64.2719 57.8389 64.2719H58.2769V65.0669H57.684C56.889 65.0669 56.4914 64.6806 56.4914 63.9081V62.1092H56.0468V61.3344H56.4914V60.4113H57.4414V61.3344H58.2769V62.1092H57.4414ZM60.6127 65.1275C60.2534 65.1275 59.93 65.0489 59.6425 64.8917C59.355 64.73 59.1282 64.5032 58.962 64.2112C58.8003 63.9193 58.7195 63.5824 58.7195 63.2006C58.7195 62.8188 58.8026 62.482 58.9688 62.19C59.1394 61.8981 59.3708 61.6735 59.6627 61.5163C59.9547 61.3546 60.2803 61.2737 60.6396 61.2737C60.999 61.2737 61.3246 61.3546 61.6166 61.5163C61.9085 61.6735 62.1376 61.8981 62.3038 62.19C62.4745 62.482 62.5598 62.8188 62.5598 63.2006C62.5598 63.5824 62.4722 63.9193 62.297 64.2112C62.1264 64.5032 61.8928 64.73 61.5963 64.8917C61.3044 65.0489 60.9765 65.1275 60.6127 65.1275ZM60.6127 64.3056C60.7834 64.3056 60.9428 64.2651 61.091 64.1843C61.2438 64.099 61.365 63.9732 61.4549 63.807C61.5447 63.6408 61.5896 63.4387 61.5896 63.2006C61.5896 62.8458 61.4953 62.5741 61.3066 62.3854C61.1225 62.1923 60.8957 62.0957 60.6262 62.0957C60.3567 62.0957 60.1298 62.1923 59.9457 62.3854C59.766 62.5741 59.6762 62.8458 59.6762 63.2006C59.6762 63.5555 59.7638 63.8295 59.9389 64.0226C60.1186 64.2112 60.3432 64.3056 60.6127 64.3056ZM64.1949 61.9138C64.3162 61.7162 64.4734 61.5612 64.6665 61.4489C64.8642 61.3366 65.0888 61.2805 65.3403 61.2805V62.2709H65.091C64.7946 62.2709 64.57 62.3405 64.4173 62.4797C64.269 62.619 64.1949 62.8615 64.1949 63.2074V65.0669H63.2517V61.3344H64.1949V61.9138ZM69.4454 63.1198C69.4454 63.2545 69.4364 63.3758 69.4184 63.4836H66.6898C66.7122 63.7531 66.8065 63.9642 66.9727 64.1169C67.1389 64.2696 67.3433 64.346 67.5858 64.346C67.9362 64.346 68.1855 64.1955 68.3337 63.8946H69.351C69.2432 64.2539 69.0366 64.5504 68.7312 64.7839C68.4258 65.013 68.0507 65.1275 67.6061 65.1275C67.2467 65.1275 66.9233 65.0489 66.6359 64.8917C66.3529 64.73 66.1306 64.5032 65.9689 64.2112C65.8117 63.9193 65.7331 63.5824 65.7331 63.2006C65.7331 62.8144 65.8117 62.4752 65.9689 62.1833C66.1261 61.8913 66.3462 61.6668 66.6291 61.5095C66.9121 61.3523 67.2377 61.2737 67.6061 61.2737C67.9609 61.2737 68.2775 61.3501 68.556 61.5028C68.839 61.6555 69.0568 61.8734 69.2096 62.1563C69.3668 62.4348 69.4454 62.756 69.4454 63.1198ZM68.4684 62.8503C68.4639 62.6077 68.3764 62.4146 68.2057 62.2709C68.035 62.1226 67.8261 62.0485 67.5791 62.0485C67.3455 62.0485 67.1479 62.1204 66.9862 62.2641C66.829 62.4034 66.7324 62.5988 66.6965 62.8503H68.4684Z" fill="#F07100"/>
<rect width="51.018" height="22.4632" transform="translate(27 26.8101)" fill="white"/>
<path d="M44.6424 34.8388C44.562 34.8388 44.5047 34.8937 44.5047 34.969V34.9695C44.5047 35.0399 44.5545 35.0918 44.6257 35.0918C44.6766 35.0918 44.709 35.0659 44.7226 35.0366H44.7277C44.7277 35.0394 44.7275 35.0422 44.7275 35.0451C44.7246 35.116 44.6997 35.1735 44.6409 35.1735C44.6082 35.1735 44.5854 35.1566 44.5756 35.1306L44.5748 35.1281H44.5096L44.5101 35.1309C44.5219 35.1877 44.5728 35.228 44.6409 35.228C44.7341 35.228 44.7904 35.154 44.7904 35.0291V35.0286C44.7904 34.895 44.7215 34.8388 44.6424 34.8388ZM44.6422 35.041C44.6 35.041 44.5694 35.0101 44.5694 34.9672V34.9667C44.5694 34.9253 44.6021 34.8927 44.6429 34.8927C44.684 34.8927 44.7161 34.9259 44.7161 34.9682V34.9688C44.7161 35.0106 44.684 35.041 44.6422 35.041ZM44.8965 34.9785C44.9202 34.9785 44.9374 34.9605 44.9374 34.9379C44.9374 34.9151 44.9202 34.8973 44.8965 34.8973C44.8731 34.8973 44.8557 34.9151 44.8557 34.9379C44.8557 34.9605 44.8731 34.9785 44.8965 34.9785ZM44.8965 35.1692C44.9202 35.1692 44.9374 35.1514 44.9374 35.1286C44.9374 35.1057 44.9202 35.088 44.8965 35.088C44.8731 35.088 44.8557 35.1057 44.8557 35.1286C44.8557 35.1514 44.8731 35.1692 44.8965 35.1692ZM45.1825 35.2188H45.246V35.1476H45.2958V35.0929H45.246V34.848H45.1522C45.1018 34.9246 45.0491 35.0099 45.0011 35.0934V35.1476H45.1825V35.2188ZM45.0628 35.0944V35.0905C45.0987 35.0276 45.1416 34.959 45.1797 34.9009H45.1835V35.0944H45.0628ZM45.4389 35.2188H45.5052V34.848H45.4392L45.3423 34.9161V34.9785L45.4345 34.9133H45.4389V35.2188Z" fill="#333333"/>
<rect width="51.018" height="22.4632" transform="translate(124.467 26.8101)" fill="white"/>
<path d="M136.764 36.7091C136.764 36.4988 136.935 36.3284 137.145 36.3284H137.526C137.736 36.3284 137.907 36.4988 137.907 36.7091V39.7549C137.907 39.9652 137.736 40.1357 137.526 40.1357H137.145C136.935 40.1357 136.764 39.9652 136.764 39.7549V36.7091Z" fill="#333333"/>
<path d="M138.668 35.9476C138.668 35.7374 138.838 35.5669 139.049 35.5669H139.429C139.64 35.5669 139.81 35.7374 139.81 35.9476V39.7549C139.81 39.9652 139.64 40.1357 139.429 40.1357H139.049C138.838 40.1357 138.668 39.9652 138.668 39.7549V35.9476Z" fill="#333333"/>
<path d="M134.861 38.0416C134.861 37.8314 135.031 37.6609 135.241 37.6609H135.622C135.832 37.6609 136.003 37.8314 136.003 38.0416V39.7549C136.003 39.9652 135.832 40.1357 135.622 40.1357H135.241C135.031 40.1357 134.861 39.9652 134.861 39.7549V38.0416Z" fill="#333333"/>
<path d="M132.957 38.9935C132.957 38.7832 133.127 38.6127 133.338 38.6127H133.718C133.929 38.6127 134.099 38.7832 134.099 38.9935V39.7549C134.099 39.9652 133.929 40.1357 133.718 40.1357H133.338C133.127 40.1357 132.957 39.9652 132.957 39.7549V38.9935Z" fill="#333333"/>
<path d="M145.183 38.9634C145.723 38.4967 146.515 38.4967 147.056 38.9634C147.083 38.9885 147.099 39.0237 147.1 39.061C147.1 39.0984 147.086 39.1345 147.06 39.1606L146.213 40.0327C146.188 40.0582 146.154 40.0728 146.119 40.0728C146.084 40.0727 146.05 40.0583 146.025 40.0327L145.179 39.1606C145.153 39.1344 145.138 39.0984 145.139 39.061C145.139 39.0238 145.156 38.9884 145.183 38.9634ZM144.039 37.9194C145.204 36.8136 147.007 36.8137 148.172 37.9194C148.198 37.9454 148.213 37.9808 148.214 38.0181C148.214 38.0554 148.2 38.0912 148.174 38.1177L147.685 38.6226C147.634 38.6739 147.553 38.6746 147.501 38.6245C147.119 38.2713 146.621 38.0757 146.105 38.0757C145.59 38.0759 145.092 38.2713 144.71 38.6245C144.658 38.6747 144.577 38.6741 144.526 38.6226L144.037 38.1177C144.011 38.0913 143.998 38.0553 143.998 38.0181C143.998 37.9809 144.013 37.9453 144.039 37.9194ZM142.896 36.8774C144.683 35.1302 147.501 35.1301 149.287 36.8774C149.313 36.9034 149.328 36.9391 149.328 36.9761C149.328 37.013 149.314 37.0485 149.288 37.0747L148.798 37.5796C148.747 37.6311 148.665 37.6315 148.614 37.5806C147.934 36.9203 147.031 36.5523 146.092 36.5522C145.153 36.5522 144.249 36.9201 143.568 37.5806C143.517 37.6316 143.435 37.6315 143.385 37.5796L142.895 37.0747C142.869 37.0485 142.855 37.0129 142.855 36.9761C142.856 36.9391 142.871 36.9034 142.896 36.8774Z" fill="#333333"/>
<path opacity="0.35" d="M153.897 35.103H160.091C160.821 35.1031 161.413 35.6944 161.413 36.4243V38.3286C161.413 39.0586 160.821 39.6508 160.091 39.6509H153.897C153.168 39.6506 152.576 39.0585 152.576 38.3286V36.4243C152.576 35.6945 153.168 35.1033 153.897 35.103Z" stroke="#333333" stroke-width="0.401704"/>
<path opacity="0.4" d="M161.994 36.8052V38.412C162.317 38.2759 162.528 37.9593 162.528 37.6086C162.528 37.2578 162.317 36.9413 161.994 36.8052Z" fill="#333333"/>
<path d="M153.137 36.4245C153.137 36.004 153.478 35.6631 153.898 35.6631H160.091C160.511 35.6631 160.852 36.004 160.852 36.4245V38.3282C160.852 38.7487 160.511 39.0897 160.091 39.0897H153.898C153.478 39.0897 153.137 38.7487 153.137 38.3282V36.4245Z" fill="#333333"/>
</g>
<path d="M161.748 23.6309C169.81 23.6309 176.346 30.1674 176.346 38.2295V183.369H23.6309V38.2285C23.6311 30.1666 30.1676 23.6309 38.2295 23.6309H161.748Z" stroke="#333333" stroke-width="6.7374"/>
</g>
<defs>
<filter id="filter0_d_459_1286" x="0.261719" y="0.262695" width="199.453" height="206.475" filterUnits="userSpaceOnUse" color-interpolation-filters="sRGB">
<feFlood flood-opacity="0" result="BackgroundImageFix"/>
<feColorMatrix in="SourceAlpha" type="matrix" values="0 0 0 0 0 0 0 0 0 0 0 0 0 0 0 0 0 0 127 0" result="hardAlpha"/>
<feOffset/>
<feGaussianBlur stdDeviation="10"/>
<feComposite in2="hardAlpha" operator="out"/>
<feColorMatrix type="matrix" values="0 0 0 0 0 0 0 0 0 0 0 0 0 0 0 0 0 0 0.25 0"/>
<feBlend mode="normal" in2="BackgroundImageFix" result="effect1_dropShadow_459_1286"/>
<feBlend mode="normal" in="SourceGraphic" in2="effect1_dropShadow_459_1286" result="shape"/>
</filter>
<clipPath id="clip0_459_1286">
<path d="M27 38.229C27 32.0274 32.0274 27 38.229 27H161.748C167.95 27 172.977 32.0274 172.977 38.229V180H27V38.229Z" fill="white"/>
</clipPath>
<clipPath id="clip1_459_1286">
<rect width="8.9832" height="8.9832" fill="white" transform="translate(142.66 58.8154)"/>
</clipPath>
</defs>
</svg>
