<svg width="17" height="17" viewBox="0 0 17 17" fill="none" xmlns="http://www.w3.org/2000/svg">
<circle cx="8.30332" cy="8.34324" r="8.05332" fill="#FFF0E3"/>
<path d="M8.68512 8.72675C8.26328 8.72675 7.90216 8.57655 7.60176 8.27614C7.30135 7.97574 7.15115 7.61462 7.15115 7.19278C7.15115 6.77094 7.30135 6.40982 7.60176 6.10942C7.90216 5.80901 8.26328 5.65881 8.68512 5.65881C9.10696 5.65881 9.46808 5.80901 9.76848 6.10942C10.0689 6.40982 10.2191 6.77094 10.2191 7.19278C10.2191 7.61462 10.0689 7.97574 9.76848 8.27614C9.46808 8.57655 9.10696 8.72675 8.68512 8.72675ZM5.61719 11.0277V10.7209C5.61719 10.5036 5.67311 10.3039 5.78497 10.1217C5.89682 9.93954 6.04542 9.80052 6.23077 9.70465C6.62705 9.50651 7.02971 9.35791 7.43877 9.25884C7.84783 9.15977 8.26328 9.11024 8.68512 9.11024C9.10696 9.11024 9.52241 9.15977 9.93147 9.25884C10.3405 9.35791 10.7432 9.50651 11.1395 9.70465C11.3248 9.80052 11.4734 9.93954 11.5853 10.1217C11.6971 10.3039 11.7531 10.5036 11.7531 10.7209V11.0277C11.7531 11.2386 11.678 11.4192 11.5278 11.5694C11.3776 11.7196 11.197 11.7947 10.9861 11.7947H6.38417C6.17325 11.7947 5.99269 11.7196 5.84249 11.5694C5.69229 11.4192 5.61719 11.2386 5.61719 11.0277ZM6.38417 11.0277H10.9861V10.7209C10.9861 10.6506 10.9685 10.5867 10.9333 10.5292C10.8982 10.4716 10.8518 10.4269 10.7943 10.3949C10.4492 10.2224 10.1008 10.0929 9.74931 10.0066C9.39778 9.92036 9.04305 9.87722 8.68512 9.87722C8.32719 9.87722 7.97247 9.92036 7.62093 10.0066C7.2694 10.0929 6.92106 10.2224 6.57592 10.3949C6.51839 10.4269 6.47205 10.4716 6.4369 10.5292C6.40175 10.5867 6.38417 10.6506 6.38417 10.7209V11.0277ZM8.68512 7.95976C8.89604 7.95976 9.0766 7.88466 9.2268 7.73446C9.377 7.58426 9.4521 7.4037 9.4521 7.19278C9.4521 6.98186 9.377 6.8013 9.2268 6.6511C9.0766 6.5009 8.89604 6.4258 8.68512 6.4258C8.4742 6.4258 8.29364 6.5009 8.14344 6.6511C7.99324 6.8013 7.91814 6.98186 7.91814 7.19278C7.91814 7.4037 7.99324 7.58426 8.14344 7.73446C8.29364 7.88466 8.4742 7.95976 8.68512 7.95976Z" fill="#F07100"/>
</svg>
