<svg width="62" height="48" viewBox="0 0 62 48" fill="none" xmlns="http://www.w3.org/2000/svg">
<path d="M37.8574 1.09729C46.9481 1.09729 54.3173 8.46664 54.3174 17.5573V29.6285C54.3172 38.7191 46.948 46.0885 37.8574 46.0885H10.4235C9.81747 46.0885 9.32617 45.5972 9.32617 44.9912V2.19463C9.32617 1.58859 9.81747 1.09729 10.4235 1.09729H37.8574ZM25.1211 12.2174C24.3458 12.2174 23.6276 12.6265 23.2324 13.2936L17.6699 22.6881C17.2616 23.3777 17.2616 24.2349 17.6699 24.9244L23.2324 34.318C23.6275 34.9852 24.3456 35.3951 25.1211 35.3951H36.3428C37.1182 35.3951 37.8363 34.9852 38.2314 34.318L43.7939 24.9244C44.2023 24.2349 44.2023 23.3777 43.7939 22.6881L38.2314 13.2936C37.8363 12.6266 37.1181 12.2174 36.3428 12.2174H25.1211Z" fill="url(#paint0_linear_710_858)"/>
<mask id="path-2-inside-1_710_858" fill="white">
<path d="M37.8584 0C47.5551 5.96838e-06 55.416 7.86087 55.416 17.5576V29.6279C55.416 39.3247 47.5552 47.1855 37.8584 47.1855H9.32781C8.72177 47.1855 8.23047 46.6942 8.23047 46.0882V1.09734C8.23047 0.491297 8.72177 0 9.32781 0H37.8584Z"/>
</mask>
<path d="M37.8584 0V-0.164602V0ZM37.8584 0V0.164602C47.4642 0.164608 55.2514 7.95177 55.2514 17.5576H55.416H55.5806C55.5806 7.76996 47.6461 -0.164596 37.8584 -0.164602V0ZM55.416 17.5576H55.2514V29.6279H55.416H55.5806V17.5576H55.416ZM55.416 29.6279H55.2514C55.2514 39.2338 47.4642 47.0209 37.8584 47.0209V47.1855V47.3501C47.6461 47.3501 55.5806 39.4156 55.5806 29.6279H55.416ZM37.8584 47.1855V47.0209H9.32781V47.1855V47.3501H37.8584V47.1855ZM8.23047 46.0882H8.39507V1.09734H8.23047H8.06587V46.0882H8.23047ZM9.32781 0V0.164602H37.8584V0V-0.164602H9.32781V0ZM8.23047 1.09734H8.39507C8.39507 0.582205 8.81267 0.164602 9.32781 0.164602V0V-0.164602C8.63086 -0.164602 8.06587 0.40039 8.06587 1.09734H8.23047ZM9.32781 47.1855V47.0209C8.81267 47.0209 8.39507 46.6033 8.39507 46.0882H8.23047H8.06587C8.06587 46.7852 8.63086 47.3501 9.32781 47.3501V47.1855Z" fill="#FD6F01" mask="url(#path-2-inside-1_710_858)"/>
<path d="M40.8008 22.8888C41.1581 23.4922 41.1581 24.2424 40.8008 24.8458L36.6143 31.9171C36.2686 32.5007 35.6402 32.8584 34.9619 32.8585H26.4902C25.8119 32.8585 25.1837 32.5007 24.8379 31.9171L20.6504 24.8458C20.2931 24.2425 20.2932 23.4922 20.6504 22.8888L24.8379 15.8175C25.1836 15.2338 25.8118 14.8761 26.4902 14.8761L34.9619 14.8761C35.6403 14.8763 36.2686 15.2338 36.6143 15.8175L40.8008 22.8888Z" stroke="#FD6F01" stroke-width="0.548673"/>
<path d="M37.7312 22.7399C38.1468 23.434 38.1468 24.3005 37.7312 24.9947L35.2046 29.2147C34.8082 29.8768 34.0932 30.282 33.3216 30.282H28.1281C27.3564 30.282 26.6415 29.8768 26.2451 29.2147L23.7184 24.9947C23.3028 24.3005 23.3028 23.434 23.7184 22.7399L26.2451 18.5199C26.6415 17.8578 27.3564 17.4526 28.1281 17.4526H33.3216C34.0932 17.4526 34.8082 17.8578 35.2046 18.5199L37.7312 22.7399Z" fill="#E1760C"/>
<g style="mix-blend-mode:overlay">
<path d="M21.0488 11.3667C21.4061 11.9701 21.4061 12.7203 21.0488 13.3237L16.8623 20.395C16.5166 20.9786 15.8883 21.3363 15.21 21.3364L6.73828 21.3364C6.05993 21.3364 5.43171 20.9786 5.08594 20.395L0.898438 13.3237C0.541162 12.7204 0.541204 11.9701 0.898438 11.3667L5.08594 4.29541C5.43169 3.71173 6.05987 3.354 6.73828 3.354L15.21 3.354C15.8883 3.35416 16.5167 3.7117 16.8623 4.29541L21.0488 11.3667Z" stroke="#FD6F01" stroke-width="0.548673"/>
</g>
<g style="mix-blend-mode:overlay">
<path d="M61.1016 34.411C61.4589 35.0144 61.4589 35.7647 61.1016 36.368L56.915 43.4393C56.5694 44.023 55.941 44.3806 55.2627 44.3807H46.791C46.1127 44.3807 45.4844 44.0229 45.1387 43.4393L40.9512 36.368C40.5939 35.7647 40.5939 35.0144 40.9512 34.411L45.1387 27.3397C45.4844 26.756 46.1126 26.3983 46.791 26.3983L55.2627 26.3983C55.941 26.3985 56.5694 26.756 56.915 27.3397L61.1016 34.411Z" stroke="#FD6F01" stroke-width="0.548673"/>
</g>
<g style="mix-blend-mode:overlay">
<path d="M60.5527 10.818C60.91 11.4214 60.91 12.1716 60.5527 12.775L56.3662 19.8463C56.0205 20.4299 55.3922 20.7876 54.7139 20.7877L46.2422 20.7877C45.5638 20.7877 44.9356 20.4299 44.5898 19.8463L40.4023 12.775C40.0451 12.1717 40.0451 11.4214 40.4023 10.818L44.5898 3.7467C44.9356 3.16303 45.5638 2.8053 46.2422 2.8053L54.7139 2.8053C55.3922 2.80545 56.0206 3.163 56.3662 3.7467L60.5527 10.818Z" stroke="#FD6F01" stroke-width="0.548673"/>
</g>
<g style="mix-blend-mode:overlay">
<path d="M21.0488 34.411C21.4061 35.0144 21.4061 35.7647 21.0488 36.368L16.8623 43.4393C16.5166 44.023 15.8883 44.3806 15.21 44.3807H6.73828C6.05993 44.3807 5.43171 44.0229 5.08594 43.4393L0.898438 36.368C0.541162 35.7647 0.541204 35.0144 0.898438 34.411L5.08594 27.3397C5.43169 26.756 6.05987 26.3983 6.73828 26.3983L15.21 26.3983C15.8883 26.3985 16.5167 26.756 16.8623 27.3397L21.0488 34.411Z" stroke="#FD6F01" stroke-width="0.548673"/>
</g>
<defs>
<linearGradient id="paint0_linear_710_858" x1="31.8217" y1="1.09729" x2="31.8217" y2="46.0884" gradientUnits="userSpaceOnUse">
<stop stop-color="#FD6F01"/>
<stop offset="1" stop-color="#FFB000"/>
</linearGradient>
</defs>
</svg>
