<svg width="148" height="148" viewBox="0 0 148 148" fill="none" xmlns="http://www.w3.org/2000/svg">
<path d="M73.5983 147.869C63.5529 147.869 54.0588 145.94 45.116 142.081C36.1732 138.222 28.3636 132.954 21.6871 126.278C15.0106 119.601 9.74291 111.792 5.88403 102.849C2.02515 93.906 0.0957031 84.4119 0.0957031 74.3666C0.0957031 64.1987 2.02515 54.674 5.88403 45.7925C9.74291 36.9109 15.0106 29.1319 21.6871 22.4554C28.3636 15.7789 36.1732 10.5112 45.116 6.65234C54.0588 2.79346 63.5529 0.864014 73.5983 0.864014C83.7661 0.864014 93.2908 2.79346 102.172 6.65234C111.054 10.5112 118.833 15.7789 125.509 22.4554C132.186 29.1319 137.454 36.9109 141.312 45.7925C145.171 54.674 147.101 64.1987 147.101 74.3666C147.101 84.4119 145.171 93.906 141.312 102.849C137.454 111.792 132.186 119.601 125.509 126.278C118.833 132.954 111.054 138.222 102.172 142.081C93.2908 145.94 83.7661 147.869 73.5983 147.869ZM73.5983 132.801C76.7834 128.391 79.5397 123.797 81.8673 119.019C84.1949 114.242 86.0937 109.158 87.5638 103.768H59.6328C61.1028 109.158 63.0016 114.242 65.3292 119.019C67.6568 123.797 70.4131 128.391 73.5983 132.801ZM54.4876 129.861C52.2825 125.818 50.3531 121.623 48.6993 117.274C47.0455 112.925 45.6673 108.423 44.5648 103.768H22.8815C26.4341 109.893 30.8749 115.222 36.2038 119.754C41.5328 124.287 47.6274 127.656 54.4876 129.861ZM92.7089 129.861C99.5692 127.656 105.664 124.287 110.993 119.754C116.322 115.222 120.762 109.893 124.315 103.768H102.632C101.529 108.423 100.151 112.925 98.4973 117.274C96.8434 121.623 94.914 125.818 92.7089 129.861ZM16.6338 89.0671H41.6246C41.2571 86.617 40.9815 84.1975 40.7977 81.8087C40.614 79.4199 40.5221 76.9392 40.5221 74.3666C40.5221 71.794 40.614 69.3133 40.7977 66.9244C40.9815 64.5356 41.2571 62.1161 41.6246 59.6661H16.6338C16.0213 62.1161 15.5619 64.5356 15.2556 66.9244C14.9493 69.3133 14.7962 71.794 14.7962 74.3666C14.7962 76.9392 14.9493 79.4199 15.2556 81.8087C15.5619 84.1975 16.0213 86.617 16.6338 89.0671ZM56.3252 89.0671H90.8714C91.2389 86.617 91.5145 84.1975 91.6983 81.8087C91.882 79.4199 91.9739 76.9392 91.9739 74.3666C91.9739 71.794 91.882 69.3133 91.6983 66.9244C91.5145 64.5356 91.2389 62.1161 90.8714 59.6661H56.3252C55.9576 62.1161 55.682 64.5356 55.4983 66.9244C55.3145 69.3133 55.2226 71.794 55.2226 74.3666C55.2226 76.9392 55.3145 79.4199 55.4983 81.8087C55.682 84.1975 55.9576 86.617 56.3252 89.0671ZM105.572 89.0671H130.563C131.175 86.617 131.635 84.1975 131.941 81.8087C132.247 79.4199 132.4 76.9392 132.4 74.3666C132.4 71.794 132.247 69.3133 131.941 66.9244C131.635 64.5356 131.175 62.1161 130.563 59.6661H105.572C105.939 62.1161 106.215 64.5356 106.399 66.9244C106.583 69.3133 106.674 71.794 106.674 74.3666C106.674 76.9392 106.583 79.4199 106.399 81.8087C106.215 84.1975 105.939 86.617 105.572 89.0671ZM102.632 44.9655H124.315C120.762 38.8403 116.322 33.5114 110.993 28.9787C105.664 24.4461 99.5692 21.0772 92.7089 18.8721C94.914 22.9148 96.8434 27.1106 98.4973 31.4595C100.151 35.8084 101.529 40.3104 102.632 44.9655ZM59.6328 44.9655H87.5638C86.0937 39.5754 84.1949 34.4914 81.8673 29.7138C79.5397 24.9361 76.7834 20.3422 73.5983 15.932C70.4131 20.3422 67.6568 24.9361 65.3292 29.7138C63.0016 34.4914 61.1028 39.5754 59.6328 44.9655ZM22.8815 44.9655H44.5648C45.6673 40.3104 47.0455 35.8084 48.6993 31.4595C50.3531 27.1106 52.2825 22.9148 54.4876 18.8721C47.6274 21.0772 41.5328 24.4461 36.2038 28.9787C30.8749 33.5114 26.4341 38.8403 22.8815 44.9655Z" fill="#E6E6E6" fill-opacity="0.901961"/>
</svg>
