<svg width="17" height="17" viewBox="0 0 17 17" fill="none" xmlns="http://www.w3.org/2000/svg">
<g clip-path="url(#clip0_698_1734)">
<g clip-path="url(#clip1_698_1734)">
<mask id="mask0_698_1734" style="mask-type:luminance" maskUnits="userSpaceOnUse" x="0" y="1" width="16" height="16">
<path d="M8.34521 16.2795C12.5604 16.2795 15.9775 12.8624 15.9775 8.6472C15.9775 4.43198 12.5604 1.01489 8.34521 1.01489C4.12999 1.01489 0.712891 4.43198 0.712891 8.6472C0.712891 12.8624 4.12999 16.2795 8.34521 16.2795Z" fill="white"/>
</mask>
<g mask="url(#mask0_698_1734)">
<path d="M16.7002 0.292236H-0.00976562V17.0022H16.7002V0.292236Z" fill="url(#paint0_linear_698_1734)"/>
</g>
<path d="M10.554 10.2942L12.7134 9.04738C12.8278 8.98133 12.8985 8.85852 12.8985 8.72637V6.233C12.8985 6.10118 12.8275 5.97808 12.7134 5.91201L10.554 4.66516C10.4396 4.59909 10.2979 4.5994 10.1835 4.66516L8.02415 5.91201C7.90975 5.97808 7.83903 6.10118 7.83903 6.233V10.6891L6.3248 11.5632L4.81055 10.6891V8.94052L6.3248 8.06634L7.32356 8.64288V7.46987L6.50991 7.00026C6.45382 6.96786 6.38961 6.95072 6.32448 6.95072C6.25935 6.95072 6.19516 6.96786 6.13937 7.00026L3.98004 8.2471C3.86567 8.31314 3.79492 8.43595 3.79492 8.56811V11.0615C3.79492 11.1933 3.86598 11.3164 3.98004 11.3825L6.13937 12.6293C6.25343 12.6951 6.39554 12.6951 6.50991 12.6293L8.66922 11.3828C8.78362 11.3167 8.85434 11.1936 8.85434 11.0618V6.60571L8.88175 6.59013L10.3686 5.73157L11.8829 6.60571V8.35433L10.3686 9.22844L9.37137 8.65253V9.82554L10.1835 10.2945C10.2979 10.3603 10.4396 10.36 10.554 10.2942Z" fill="white"/>
</g>
</g>
<defs>
<linearGradient id="paint0_linear_698_1734" x1="-3.0635" y1="1.66561" x2="14.1869" y2="12.222" gradientUnits="userSpaceOnUse">
<stop stop-color="#A229C5"/>
<stop offset="1" stop-color="#7C3AE7"/>
</linearGradient>
<clipPath id="clip0_698_1734">
<rect width="16.2" height="16.2" fill="white" transform="translate(0.400391 0.399902)"/>
</clipPath>
<clipPath id="clip1_698_1734">
<rect width="15.5769" height="16.2" fill="white" transform="translate(0.712891 0.399902)"/>
</clipPath>
</defs>
</svg>
