<svg width="13" height="13" viewBox="0 0 13 13" fill="none" xmlns="http://www.w3.org/2000/svg">
<path d="M11 3.4V11C11 11.2833 11.0958 11.5208 11.2875 11.7125C11.4792 11.9042 11.7167 12 12 12C12.2833 12 12.5208 11.9042 12.7125 11.7125C12.9042 11.5208 13 11.2833 13 11V1C13 0.716667 12.9042 0.479167 12.7125 0.2875C12.5208 0.0958333 12.2833 0 12 0H2C1.71667 0 1.47917 0.0958333 1.2875 0.2875C1.09583 0.479167 1 0.716667 1 1C1 1.28333 1.09583 1.52083 1.2875 1.7125C1.47917 1.90417 1.71667 2 2 2H9.6L0.7 10.9C0.516666 11.0833 0.425 11.3167 0.425 11.6C0.425 11.8833 0.516666 12.1167 0.7 12.3C0.883333 12.4833 1.11667 12.575 1.4 12.575C1.68333 12.575 1.91667 12.4833 2.1 12.3L11 3.4Z" fill="white"/>
</svg>
