<svg width="15" height="17" viewBox="0 0 15 17" fill="none" xmlns="http://www.w3.org/2000/svg">
<path opacity="0.8" d="M4.10539 9.03419C4.21174 8.64858 4.32984 8.26312 4.4597 7.87782C4.58956 7.49252 4.73824 7.12012 4.90573 6.76064L3.79357 6.75684L2.47705 8.67638L4.10539 9.03419ZM12.3954 2.03065C11.5031 2.22507 10.593 2.6643 9.66533 3.34834C8.73763 4.03238 7.9345 4.86908 7.25596 5.85841C6.81343 6.50364 6.43927 7.17598 6.13347 7.87545C5.82767 8.57491 5.62404 9.2061 5.52259 9.769L8.10347 11.5391C8.59206 11.2417 9.10754 10.8244 9.64992 10.2872C10.1923 9.75002 10.6848 9.1588 11.1273 8.51358C11.8058 7.52424 12.2971 6.47366 12.6011 5.36184C12.9051 4.25002 12.9871 3.24288 12.847 2.34042C12.8369 2.28603 12.8185 2.23787 12.792 2.19592C12.7654 2.15398 12.7306 2.11826 12.6876 2.08875C12.6446 2.05925 12.5987 2.03966 12.55 2.02998C12.5013 2.02029 12.4498 2.02052 12.3954 2.03065ZM9.02567 7.42796C8.6708 7.18457 8.45367 6.84985 8.37428 6.42382C8.29489 5.99778 8.3769 5.60733 8.62029 5.25246C8.86368 4.89759 9.19839 4.68046 9.62442 4.60107C10.0505 4.52168 10.4409 4.60368 10.7958 4.84707C11.1507 5.09046 11.3678 5.42518 11.4472 5.85121C11.5266 6.27725 11.4446 6.6677 11.2012 7.02257C10.9578 7.37744 10.6231 7.59457 10.197 7.67396C9.771 7.75335 9.38054 7.67135 9.02567 7.42796ZM9.29941 12.5965L10.2197 13.9867L11.5362 12.0672L11.1321 11.031C10.8571 11.3168 10.5632 11.5896 10.2506 11.8495C9.93789 12.1094 9.62084 12.3584 9.29941 12.5965ZM14.128 1.06062C14.5003 2.45442 14.5277 3.87262 14.2103 5.31522C13.8929 6.75781 13.2401 8.1996 12.2518 9.6406L12.9872 11.4732C13.0889 11.7169 13.1244 11.9705 13.0938 12.2342C13.0632 12.4978 12.9742 12.7372 12.8267 12.9522L10.8574 15.8235C10.7025 16.0493 10.4867 16.1622 10.21 16.1622C9.93335 16.1621 9.71697 16.0454 9.5609 15.8118L7.87977 13.2831L3.97618 10.6059L1.01172 9.94833C0.737646 9.88685 0.550765 9.72705 0.451081 9.46893C0.351397 9.21082 0.378998 8.96885 0.533882 8.74302L2.50313 5.87179C2.65064 5.65671 2.84186 5.48743 3.07677 5.36393C3.31169 5.24043 3.56112 5.18223 3.82506 5.18932L5.79957 5.21532C6.78788 3.77432 7.89776 2.64599 9.12922 1.83031C10.3607 1.01463 11.6936 0.529426 13.1279 0.3747C13.2401 0.37256 13.3502 0.384861 13.4584 0.411604C13.5665 0.438346 13.6636 0.481219 13.7497 0.540223C13.8357 0.599227 13.9107 0.674361 13.9746 0.765626C14.0385 0.856891 14.0896 0.955221 14.128 1.06062Z" fill="#F07100" fill-opacity="0.8"/>
</svg>
