<svg width="8" height="16" viewBox="0 0 8 16" fill="none" xmlns="http://www.w3.org/2000/svg">
<path d="M5.85694 8L0.344443 2.4875C0.156943 2.3 0.066318 2.07812 0.072568 1.82188C0.078818 1.56563 0.175693 1.34375 0.363193 1.15625C0.550693 0.96875 0.772568 0.875 1.02882 0.875C1.28507 0.875 1.50694 0.96875 1.69444 1.15625L7.45069 6.93125C7.60069 7.08125 7.71319 7.25 7.78819 7.4375C7.86319 7.625 7.90069 7.8125 7.90069 8C7.90069 8.1875 7.86319 8.375 7.78819 8.5625C7.71319 8.75 7.60069 8.91875 7.45069 9.06875L1.67569 14.8438C1.48819 15.0313 1.26944 15.1219 1.01944 15.1156C0.769443 15.1094 0.550693 15.0125 0.363193 14.825C0.175693 14.6375 0.081943 14.4156 0.081943 14.1594C0.081943 13.9031 0.175693 13.6813 0.363193 13.4938L5.85694 8Z" fill="white"/>
</svg>
